<?xml version="1.0" encoding="UTF-8"?>
<mxfile host="app.diagrams.net" modified="2024-01-26T09:40:34.000Z" agent="5.0 (X11; Linux x86_64) AppleWebKit/537.36 (KHTML, like Gecko) Chrome/101.0.0.0 Safari/537.36" etag="ETAG111111111111xx01" version="20.0.1" type="embed">
  <diagram id="DIAGRAM111111111xx01" name="Page-1">
    <mxGraphModel dx="1219" dy="1005" grid="1" gridSize="10" guides="1" tooltips="1" connect="1" arrows="1" fold="1" page="1" pageScale="1" pageWidth="850" pageHeight="1100" math="0" shadow="0">
      <root>
        <mxCell id="0" />
        <mxCell id="1" parent="0" />
        <UserObject label="" plantUmlData="{&#xa;  &quot;data&quot;: &quot;\n@startuml UseCases\n!include &lt;archimate/Archimate&gt;\n!define UseCase(e_alias, e_label) #LightBlue (&lt;&lt;use case&gt;&gt;\n==e_label) as e_alias\nleft to right direction\n\nUseCase(&quot;UC1&quot;, &quot;Add New Asset to Inventory&quot;)\nBusiness_Role(&quot;AssetOwner&quot;, &quot;Asset Owner&quot;)\nRel_Association(&quot;AssetOwner&quot;, &quot;UC1&quot;)\nBusiness_Actor(&quot;RobertNilsson&quot;, &quot;Robert Nilsson&quot;)\nBusiness_Actor(&quot;ErikJohansson&quot;, &quot;Erik Johansson&quot;)\nBusiness_Actor(&quot;IsabellaSchmidt&quot;, &quot;Isabella Schmidt&quot;)\nBusiness_Actor(&quot;BjörnRasmussen&quot;, &quot;Björn Rasmussen&quot;)\nBusiness_Actor(&quot;LiamBlackwood&quot;, &quot;Liam Blackwood&quot;)\nBusiness_Actor(&quot;ElsaEriksen&quot;, &quot;Elsa Eriksen&quot;)\nRel_Assignment(&quot;ElsaEriksen&quot;, &quot;AssetOwner&quot;)\nBusiness_Actor(&quot;LukasBauer&quot;, &quot;Lukas Bauer&quot;)\nBusiness_Actor(&quot;MalinAndersson&quot;, &quot;Malin Andersson&quot;)\nUseCase(&quot;UC2&quot;, &quot;Determine risk exposure&quot;)\nBusiness_Role(&quot;RiskManager&quot;, &quot;Risk Manager&quot;)\nRel_Association(&quot;RiskManager&quot;, &quot;UC2&quot;)\nBusiness_Actor(&quot;RobertNilsson&quot;, &quot;Robert Nilsson&quot;)\nBusiness_Actor(&quot;ErikJohansson&quot;, &quot;Erik Johansson&quot;)\nBusiness_Actor(&quot;IsabellaSchmidt&quot;, &quot;Isabella Schmidt&quot;)\nBusiness_Actor(&quot;BjörnRasmussen&quot;, &quot;Björn Rasmussen&quot;)\nBusiness_Actor(&quot;LiamBlackwood&quot;, &quot;Liam Blackwood&quot;)\nBusiness_Actor(&quot;ElsaEriksen&quot;, &quot;Elsa Eriksen&quot;)\nBusiness_Actor(&quot;LukasBauer&quot;, &quot;Lukas Bauer&quot;)\nRel_Assignment(&quot;LukasBauer&quot;, &quot;RiskManager&quot;)\nBusiness_Actor(&quot;MalinAndersson&quot;, &quot;Malin Andersson&quot;)\nUseCase(&quot;UC8&quot;, &quot;Vulnerability Management&quot;)\nBusiness_Role(&quot;InformationSecurityManager&quot;, &quot;Information Security Manager&quot;)\nRel_Association(&quot;InformationSecurityManager&quot;, &quot;UC8&quot;)\nRel_Association(&quot;RiskManager&quot;, &quot;UC8&quot;)\nBusiness_Actor(&quot;RobertNilsson&quot;, &quot;Robert Nilsson&quot;)\nRel_Assignment(&quot;RobertNilsson&quot;, &quot;InformationSecurityManager&quot;)\nBusiness_Actor(&quot;ErikJohansson&quot;, &quot;Erik Johansson&quot;)\nBusiness_Actor(&quot;IsabellaSchmidt&quot;, &quot;Isabella Schmidt&quot;)\nBusiness_Actor(&quot;BjörnRasmussen&quot;, &quot;Björn Rasmussen&quot;)\nBusiness_Actor(&quot;LiamBlackwood&quot;, &quot;Liam Blackwood&quot;)\nBusiness_Actor(&quot;ElsaEriksen&quot;, &quot;Elsa Eriksen&quot;)\nBusiness_Actor(&quot;LukasBauer&quot;, &quot;Lukas Bauer&quot;)\nBusiness_Actor(&quot;MalinAndersson&quot;, &quot;Malin Andersson&quot;)\nUseCase(&quot;UC3&quot;, &quot;Generate Reports&quot;)\nRel_Association(&quot;AssetOwner&quot;, &quot;UC3&quot;)\nRel_Association(&quot;InformationSecurityManager&quot;, &quot;UC3&quot;)\nRel_Association(&quot;RiskManager&quot;, &quot;UC3&quot;)\nBusiness_Role(&quot;ProductOwner&quot;, &quot;Product Owner&quot;)\nRel_Association(&quot;ProductOwner&quot;, &quot;UC3&quot;)\nBusiness_Role(&quot;ITOperations&quot;, &quot;IT Operations&quot;)\nRel_Association(&quot;ITOperations&quot;, &quot;UC3&quot;)\nBusiness_Role(&quot;IncidentResponseLead&quot;, &quot;Incident Response Lead&quot;)\nRel_Association(&quot;IncidentResponseLead&quot;, &quot;UC3&quot;)\nBusiness_Actor(&quot;RobertNilsson&quot;, &quot;Robert Nilsson&quot;)\nBusiness_Actor(&quot;ErikJohansson&quot;, &quot;Erik Johansson&quot;)\nRel_Assignment(&quot;ErikJohansson&quot;, &quot;IncidentResponseLead&quot;)\nBusiness_Actor(&quot;IsabellaSchmidt&quot;, &quot;Isabella Schmidt&quot;)\nBusiness_Actor(&quot;BjörnRasmussen&quot;, &quot;Björn Rasmussen&quot;)\nRel_Assignment(&quot;BjörnRasmussen&quot;, &quot;ITOperations&quot;)\nBusiness_Actor(&quot;LiamBlackwood&quot;, &quot;Liam Blackwood&quot;)\nRel_Assignment(&quot;LiamBlackwood&quot;, &quot;ProductOwner&quot;)\nBusiness_Actor(&quot;ElsaEriksen&quot;, &quot;Elsa Eriksen&quot;)\nBusiness_Actor(&quot;LukasBauer&quot;, &quot;Lukas Bauer&quot;)\nBusiness_Actor(&quot;MalinAndersson&quot;, &quot;Malin Andersson&quot;)\nUseCase(&quot;UC7&quot;, &quot;Manage Asset&quot;)\nRel_Association(&quot;AssetOwner&quot;, &quot;UC7&quot;)\nRel_Association(&quot;ProductOwner&quot;, &quot;UC7&quot;)\nBusiness_Actor(&quot;RobertNilsson&quot;, &quot;Robert Nilsson&quot;)\nBusiness_Actor(&quot;ErikJohansson&quot;, &quot;Erik Johansson&quot;)\nBusiness_Actor(&quot;IsabellaSchmidt&quot;, &quot;Isabella Schmidt&quot;)\nBusiness_Actor(&quot;BjörnRasmussen&quot;, &quot;Björn Rasmussen&quot;)\nBusiness_Actor(&quot;LiamBlackwood&quot;, &quot;Liam Blackwood&quot;)\nBusiness_Actor(&quot;ElsaEriksen&quot;, &quot;Elsa Eriksen&quot;)\nBusiness_Actor(&quot;LukasBauer&quot;, &quot;Lukas Bauer&quot;)\nBusiness_Actor(&quot;MalinAndersson&quot;, &quot;Malin Andersson&quot;)\nUseCase(&quot;UC6&quot;, &quot;Lifecycle Management&quot;)\nRel_Association(&quot;AssetOwner&quot;, &quot;UC6&quot;)\nBusiness_Actor(&quot;RobertNilsson&quot;, &quot;Robert Nilsson&quot;)\nBusiness_Actor(&quot;ErikJohansson&quot;, &quot;Erik Johansson&quot;)\nBusiness_Actor(&quot;IsabellaSchmidt&quot;, &quot;Isabella Schmidt&quot;)\nBusiness_Actor(&quot;BjörnRasmussen&quot;, &quot;Björn Rasmussen&quot;)\nBusiness_Actor(&quot;LiamBlackwood&quot;, &quot;Liam Blackwood&quot;)\nBusiness_Actor(&quot;ElsaEriksen&quot;, &quot;Elsa Eriksen&quot;)\nBusiness_Actor(&quot;LukasBauer&quot;, &quot;Lukas Bauer&quot;)\nBusiness_Actor(&quot;MalinAndersson&quot;, &quot;Malin Andersson&quot;)\nUseCase(&quot;UC4&quot;, &quot;Impact Analysis&quot;)\nRel_Association(&quot;RiskManager&quot;, &quot;UC4&quot;)\nRel_Association(&quot;ITOperations&quot;, &quot;UC4&quot;)\nBusiness_Actor(&quot;RobertNilsson&quot;, &quot;Robert Nilsson&quot;)\nBusiness_Actor(&quot;ErikJohansson&quot;, &quot;Erik Johansson&quot;)\nBusiness_Actor(&quot;IsabellaSchmidt&quot;, &quot;Isabella Schmidt&quot;)\nBusiness_Actor(&quot;BjörnRasmussen&quot;, &quot;Björn Rasmussen&quot;)\nBusiness_Actor(&quot;LiamBlackwood&quot;, &quot;Liam Blackwood&quot;)\nBusiness_Actor(&quot;ElsaEriksen&quot;, &quot;Elsa Eriksen&quot;)\nBusiness_Actor(&quot;LukasBauer&quot;, &quot;Lukas Bauer&quot;)\nBusiness_Actor(&quot;MalinAndersson&quot;, &quot;Malin Andersson&quot;)\nUseCase(&quot;UC5&quot;, &quot;Incident Response&quot;)\nRel_Association(&quot;IncidentResponseLead&quot;, &quot;UC5&quot;)\nBusiness_Actor(&quot;RobertNilsson&quot;, &quot;Robert Nilsson&quot;)\nBusiness_Actor(&quot;ErikJohansson&quot;, &quot;Erik Johansson&quot;)\nBusiness_Actor(&quot;IsabellaSchmidt&quot;, &quot;Isabella Schmidt&quot;)\nBusiness_Actor(&quot;BjörnRasmussen&quot;, &quot;Björn Rasmussen&quot;)\nBusiness_Actor(&quot;LiamBlackwood&quot;, &quot;Liam Blackwood&quot;)\nBusiness_Actor(&quot;ElsaEriksen&quot;, &quot;Elsa Eriksen&quot;)\nBusiness_Actor(&quot;LukasBauer&quot;, &quot;Lukas Bauer&quot;)\nBusiness_Actor(&quot;MalinAndersson&quot;, &quot;Malin Andersson&quot;)\nUseCase(&quot;UC9&quot;, &quot;Support Architectural Decisions&quot;)\nBusiness_Role(&quot;EnterpriseArchitect&quot;, &quot;Enterprise Architect&quot;)\nRel_Association(&quot;EnterpriseArchitect&quot;, &quot;UC9&quot;)\nBusiness_Actor(&quot;RobertNilsson&quot;, &quot;Robert Nilsson&quot;)\nBusiness_Actor(&quot;ErikJohansson&quot;, &quot;Erik Johansson&quot;)\nBusiness_Actor(&quot;IsabellaSchmidt&quot;, &quot;Isabella Schmidt&quot;)\nRel_Assignment(&quot;IsabellaSchmidt&quot;, &quot;EnterpriseArchitect&quot;)\nBusiness_Actor(&quot;BjörnRasmussen&quot;, &quot;Björn Rasmussen&quot;)\nBusiness_Actor(&quot;LiamBlackwood&quot;, &quot;Liam Blackwood&quot;)\nBusiness_Actor(&quot;ElsaEriksen&quot;, &quot;Elsa Eriksen&quot;)\nBusiness_Actor(&quot;LukasBauer&quot;, &quot;Lukas Bauer&quot;)\nBusiness_Actor(&quot;MalinAndersson&quot;, &quot;Malin Andersson&quot;)\nUseCase(&quot;UC10&quot;, &quot;Manage changes&quot;)\nRel_Association(&quot;AssetOwner&quot;, &quot;UC10&quot;)\nRel_Association(&quot;ProductOwner&quot;, &quot;UC10&quot;)\nRel_Association(&quot;ITOperations&quot;, &quot;UC10&quot;)\nBusiness_Role(&quot;ChangeManager&quot;, &quot;Change Manager&quot;)\nRel_Association(&quot;ChangeManager&quot;, &quot;UC10&quot;)\nBusiness_Actor(&quot;RobertNilsson&quot;, &quot;Robert Nilsson&quot;)\nBusiness_Actor(&quot;ErikJohansson&quot;, &quot;Erik Johansson&quot;)\nBusiness_Actor(&quot;IsabellaSchmidt&quot;, &quot;Isabella Schmidt&quot;)\nBusiness_Actor(&quot;BjörnRasmussen&quot;, &quot;Björn Rasmussen&quot;)\nBusiness_Actor(&quot;LiamBlackwood&quot;, &quot;Liam Blackwood&quot;)\nBusiness_Actor(&quot;ElsaEriksen&quot;, &quot;Elsa Eriksen&quot;)\nBusiness_Actor(&quot;LukasBauer&quot;, &quot;Lukas Bauer&quot;)\nBusiness_Actor(&quot;MalinAndersson&quot;, &quot;Malin Andersson&quot;)\nRel_Assignment(&quot;MalinAndersson&quot;, &quot;ChangeManager&quot;)\n@enduml&quot;,&#xa;  &quot;format&quot;: &quot;svg&quot;&#xa;}" id="USEROBJECT111111xx01-1">
          <mxCell style="shape=image;noLabel=1;verticalAlign=top;aspect=fixed;imageAspect=0;image=data:image/svg+xml,PD94bWwgdmVyc2lvbj0iMS4wIiBlbmNvZGluZz0idXMtYXNjaWkiIHN0YW5kYWxvbmU9Im5vIj8+PHN2ZyB4bWxucz0iaHR0cDovL3d3dy53My5vcmcvMjAwMC9zdmciIHhtbG5zOnhsaW5rPSJodHRwOi8vd3d3LnczLm9yZy8xOTk5L3hsaW5rIiBjb250ZW50U3R5bGVUeXBlPSJ0ZXh0L2NzcyIgaGVpZ2h0PSIxMjM0cHgiIHByZXNlcnZlQXNwZWN0UmF0aW89Im5vbmUiIHN0eWxlPSJ3aWR0aDo4NTRweDtoZWlnaHQ6MTIzNHB4O2JhY2tncm91bmQ6I0ZGRkZGRjsiIHZlcnNpb249IjEuMSIgdmlld0JveD0iMCAwIDg1NCAxMjM0IiB3aWR0aD0iODU0cHgiIHpvb21BbmRQYW49Im1hZ25pZnkiPjxkZWZzLz48Zz48ZyBpZD0iZWxlbV9VQzEiPjxlbGxpcHNlIGN4PSI2NzUuMTc2OSIgY3k9Ijk1MS4yMzU0IiBmaWxsPSIjQUREOEU2IiByeD0iMTYxLjY3NjkiIHJ5PSIzNC43MzU0IiBzdHlsZT0ic3Ryb2tlOiMwMDAwMDA7c3Ryb2tlLXdpZHRoOjAuNTsiLz48dGV4dCBmaWxsPSIjMDAwMDAwIiBmb250LWZhbWlseT0ic2Fucy1zZXJpZiIgZm9udC1zaXplPSIxNCIgbGVuZ3RoQWRqdXN0PSJzcGFjaW5nIiB0ZXh0TGVuZ3RoPSIzNSIgeD0iNjM0LjY3NjkiIHk9Ijk0NC43Njk2Ij4mIzE3MTt1c2U8L3RleHQ+PHRleHQgZmlsbD0iIzAwMDAwMCIgZm9udC1mYW1pbHk9InNhbnMtc2VyaWYiIGZvbnQtc2l6ZT0iMTQiIGxlbmd0aEFkanVzdD0ic3BhY2luZyIgdGV4dExlbmd0aD0iNCIgeD0iNjY5LjY3NjkiIHk9Ijk0NC43Njk2Ij4mIzE2MDs8L3RleHQ+PHRleHQgZmlsbD0iIzAwMDAwMCIgZm9udC1mYW1pbHk9InNhbnMtc2VyaWYiIGZvbnQtc2l6ZT0iMTQiIGxlbmd0aEFkanVzdD0ic3BhY2luZyIgdGV4dExlbmd0aD0iNDIiIHg9IjY3My42NzY5IiB5PSI5NDQuNzY5NiI+Y2FzZSYjMTg3OzwvdGV4dD48dGV4dCBmaWxsPSIjMDAwMDAwIiBmb250LWZhbWlseT0ic2Fucy1zZXJpZiIgZm9udC1zaXplPSIxNiIgZm9udC13ZWlnaHQ9ImJvbGQiIGxlbmd0aEFkanVzdD0ic3BhY2luZyIgdGV4dExlbmd0aD0iMzQiIHg9IjU0OC42NzY5IiB5PSI5NjIuOTIyOSI+QWRkPC90ZXh0Pjx0ZXh0IGZpbGw9IiMwMDAwMDAiIGZvbnQtZmFtaWx5PSJzYW5zLXNlcmlmIiBmb250LXNpemU9IjE2IiBmb250LXdlaWdodD0iYm9sZCIgbGVuZ3RoQWRqdXN0PSJzcGFjaW5nIiB0ZXh0TGVuZ3RoPSI2IiB4PSI1ODIuNjc2OSIgeT0iOTYyLjkyMjkiPiYjMTYwOzwvdGV4dD48dGV4dCBmaWxsPSIjMDAwMDAwIiBmb250LWZhbWlseT0ic2Fucy1zZXJpZiIgZm9udC1zaXplPSIxNiIgZm9udC13ZWlnaHQ9ImJvbGQiIGxlbmd0aEFkanVzdD0ic3BhY2luZyIgdGV4dExlbmd0aD0iMzkiIHg9IjU4OC42NzY5IiB5PSI5NjIuOTIyOSI+TmV3PC90ZXh0Pjx0ZXh0IGZpbGw9IiMwMDAwMDAiIGZvbnQtZmFtaWx5PSJzYW5zLXNlcmlmIiBmb250LXNpemU9IjE2IiBmb250LXdlaWdodD0iYm9sZCIgbGVuZ3RoQWRqdXN0PSJzcGFjaW5nIiB0ZXh0TGVuZ3RoPSI2IiB4PSI2MjcuNjc2OSIgeT0iOTYyLjkyMjkiPiYjMTYwOzwvdGV4dD48dGV4dCBmaWxsPSIjMDAwMDAwIiBmb250LWZhbWlseT0ic2Fucy1zZXJpZiIgZm9udC1zaXplPSIxNiIgZm9udC13ZWlnaHQ9ImJvbGQiIGxlbmd0aEFkanVzdD0ic3BhY2luZyIgdGV4dExlbmd0aD0iNTEiIHg9IjYzMy42NzY5IiB5PSI5NjIuOTIyOSI+QXNzZXQ8L3RleHQ+PHRleHQgZmlsbD0iIzAwMDAwMCIgZm9udC1mYW1pbHk9InNhbnMtc2VyaWYiIGZvbnQtc2l6ZT0iMTYiIGZvbnQtd2VpZ2h0PSJib2xkIiBsZW5ndGhBZGp1c3Q9InNwYWNpbmciIHRleHRMZW5ndGg9IjYiIHg9IjY4NC42NzY5IiB5PSI5NjIuOTIyOSI+JiMxNjA7PC90ZXh0Pjx0ZXh0IGZpbGw9IiMwMDAwMDAiIGZvbnQtZmFtaWx5PSJzYW5zLXNlcmlmIiBmb250LXNpemU9IjE2IiBmb250LXdlaWdodD0iYm9sZCIgbGVuZ3RoQWRqdXN0PSJzcGFjaW5nIiB0ZXh0TGVuZ3RoPSIxOSIgeD0iNjkwLjY3NjkiIHk9Ijk2Mi45MjI5Ij50bzwvdGV4dD48dGV4dCBmaWxsPSIjMDAwMDAwIiBmb250LWZhbWlseT0ic2Fucy1zZXJpZiIgZm9udC1zaXplPSIxNiIgZm9udC13ZWlnaHQ9ImJvbGQiIGxlbmd0aEFkanVzdD0ic3BhY2luZyIgdGV4dExlbmd0aD0iNiIgeD0iNzA5LjY3NjkiIHk9Ijk2Mi45MjI5Ij4mIzE2MDs8L3RleHQ+PHRleHQgZmlsbD0iIzAwMDAwMCIgZm9udC1mYW1pbHk9InNhbnMtc2VyaWYiIGZvbnQtc2l6ZT0iMTYiIGZvbnQtd2VpZ2h0PSJib2xkIiBsZW5ndGhBZGp1c3Q9InNwYWNpbmciIHRleHRMZW5ndGg9Ijg2IiB4PSI3MTUuNjc2OSIgeT0iOTYyLjkyMjkiPkludmVudG9yeTwvdGV4dD48L2c+PCEtLWVudGl0eSBBc3NldE93bmVyLS0+PGcgaWQ9ImVsZW1fQXNzZXRPd25lciI+PHJlY3QgZmlsbD0iI0ZGRkZDQyIgaGVpZ2h0PSI1MS4yOTY5IiByeD0iMi41IiByeT0iMi41IiBzdHlsZT0ic3Ryb2tlOiMxODE4MTg7c3Ryb2tlLXdpZHRoOjAuNTsiIHdpZHRoPSIxMDgiIHg9IjI3MSIgeT0iOTAyLjUiLz48aW1hZ2UgaGVpZ2h0PSIxNiIgd2lkdGg9IjE2IiB4PSIzNTQiIHhsaW5rOmhyZWY9ImRhdGE6aW1hZ2UvcG5nO2Jhc2U2NCxpVkJPUncwS0dnb0FBQUFOU1VoRVVnQUFBQkFBQUFBUUNBWUFBQUFmOC85aEFBQUFSRWxFUVZSNFhtTmdHSGJnSDVFWUE0QWwvdi9mK2g4WFJwYUhxVWN4QUYwRExzMW9ocENuR2QwUW5BcUlOWUFzUTVBMWd3M0FwZ2hkQTVwbTNMRkJCQjRGMUFRQTVLd2RvQmlmdFVVQUFBQUFTVVZPUks1Q1lJST0iIHk9IjkxMi41Ii8+PHRleHQgZmlsbD0iIzAwMDAwMCIgZm9udC1mYW1pbHk9InNhbnMtc2VyaWYiIGZvbnQtc2l6ZT0iMTQiIGxlbmd0aEFkanVzdD0ic3BhY2luZyIgdGV4dExlbmd0aD0iMzkiIHg9IjI4MSIgeT0iOTQwLjQ5NTEiPkFzc2V0PC90ZXh0Pjx0ZXh0IGZpbGw9IiMwMDAwMDAiIGZvbnQtZmFtaWx5PSJzYW5zLXNlcmlmIiBmb250LXNpemU9IjE0IiBsZW5ndGhBZGp1c3Q9InNwYWNpbmciIHRleHRMZW5ndGg9IjQiIHg9IjMyMCIgeT0iOTQwLjQ5NTEiPiYjMTYwOzwvdGV4dD48dGV4dCBmaWxsPSIjMDAwMDAwIiBmb250LWZhbWlseT0ic2Fucy1zZXJpZiIgZm9udC1zaXplPSIxNCIgbGVuZ3RoQWRqdXN0PSJzcGFjaW5nIiB0ZXh0TGVuZ3RoPSI0NSIgeD0iMzI0IiB5PSI5NDAuNDk1MSI+T3duZXI8L3RleHQ+PC9nPjwhLS1lbnRpdHkgUm9iZXJ0Tmlsc3Nvbi0tPjxnIGlkPSJlbGVtX1JvYmVydE5pbHNzb24iPjxyZWN0IGZpbGw9IiNGRkZGQ0MiIGhlaWdodD0iNTEuMjk2OSIgcng9IjIuNSIgcnk9IjIuNSIgc3R5bGU9InN0cm9rZTojMTgxODE4O3N0cm9rZS13aWR0aDowLjU7IiB3aWR0aD0iMTIxIiB4PSIxNy41IiB5PSIzNjkuNSIvPjxpbWFnZSBoZWlnaHQ9IjE2IiB3aWR0aD0iMTYiIHg9IjExMy41IiB4bGluazpocmVmPSJkYXRhOmltYWdlL3BuZztiYXNlNjQsaVZCT1J3MEtHZ29BQUFBTlNVaEVVZ0FBQUJBQUFBQVFDQVlBQUFBZjgvOWhBQUFBVDBsRVFWUjRYbU5nd0EzK0lXR1N3Yi8vLzdmK2gyRVFIMTBCUG9DaW1SeERCdDRBRUtBb0RHQ0FvbGlBQWJJMEk5dU1qa2tHWkdsQ0JnTnJBTVYraDJrazJSQnNHckNKWVFYNEZHS1ZBd0FzQUhkSGlUSWdSd0FBQUFCSlJVNUVya0pnZ2c9PSIgeT0iMzc5LjUiLz48dGV4dCBmaWxsPSIjMDAwMDAwIiBmb250LWZhbWlseT0ic2Fucy1zZXJpZiIgZm9udC1zaXplPSIxNCIgbGVuZ3RoQWRqdXN0PSJzcGFjaW5nIiB0ZXh0TGVuZ3RoPSI0NyIgeD0iMjcuNSIgeT0iNDA3LjQ5NTEiPlJvYmVydDwvdGV4dD48dGV4dCBmaWxsPSIjMDAwMDAwIiBmb250LWZhbWlseT0ic2Fucy1zZXJpZiIgZm9udC1zaXplPSIxNCIgbGVuZ3RoQWRqdXN0PSJzcGFjaW5nIiB0ZXh0TGVuZ3RoPSI0IiB4PSI3NC41IiB5PSI0MDcuNDk1MSI+JiMxNjA7PC90ZXh0Pjx0ZXh0IGZpbGw9IiMwMDAwMDAiIGZvbnQtZmFtaWx5PSJzYW5zLXNlcmlmIiBmb250LXNpemU9IjE0IiBsZW5ndGhBZGp1c3Q9InNwYWNpbmciIHRleHRMZW5ndGg9IjUwIiB4PSI3OC41IiB5PSI0MDcuNDk1MSI+Tmlsc3NvbjwvdGV4dD48L2c+PCEtLWVudGl0eSBFcmlrSm9oYW5zc29uLS0+PGcgaWQ9ImVsZW1fRXJpa0pvaGFuc3NvbiI+PHJlY3QgZmlsbD0iI0ZGRkZDQyIgaGVpZ2h0PSI1MS4yOTY5IiByeD0iMi41IiByeT0iMi41IiBzdHlsZT0ic3Ryb2tlOiMxODE4MTg7c3Ryb2tlLXdpZHRoOjAuNTsiIHdpZHRoPSIxMjEiIHg9IjE3LjUiIHk9IjY5OC41Ii8+PGltYWdlIGhlaWdodD0iMTYiIHdpZHRoPSIxNiIgeD0iMTEzLjUiIHhsaW5rOmhyZWY9ImRhdGE6aW1hZ2UvcG5nO2Jhc2U2NCxpVkJPUncwS0dnb0FBQUFOU1VoRVVnQUFBQkFBQUFBUUNBWUFBQUFmOC85aEFBQUFUMGxFUVZSNFhtTmd3QTMrSVdHU3diLy8vN2YraDJFUUgxMEJQb0NpbVJ4REJ0NEFFS0FvREdDQW9saUFBYkkwSTl1TWpra0daR2xDQmdOckFNVitoMmtrMlJCc0dyQ0pZUVg0RkdLVkF3QXNBSGRIaVRJZ1J3QUFBQUJKUlU1RXJrSmdnZz09IiB5PSI3MDguNSIvPjx0ZXh0IGZpbGw9IiMwMDAwMDAiIGZvbnQtZmFtaWx5PSJzYW5zLXNlcmlmIiBmb250LXNpemU9IjE0IiBsZW5ndGhBZGp1c3Q9InNwYWNpbmciIHRleHRMZW5ndGg9IjI1IiB4PSIyNy41IiB5PSI3MzYuNDk1MSI+RXJpazwvdGV4dD48dGV4dCBmaWxsPSIjMDAwMDAwIiBmb250LWZhbWlseT0ic2Fucy1zZXJpZiIgZm9udC1zaXplPSIxNCIgbGVuZ3RoQWRqdXN0PSJzcGFjaW5nIiB0ZXh0TGVuZ3RoPSI0IiB4PSI1Mi41IiB5PSI3MzYuNDk1MSI+JiMxNjA7PC90ZXh0Pjx0ZXh0IGZpbGw9IiMwMDAwMDAiIGZvbnQtZmFtaWx5PSJzYW5zLXNlcmlmIiBmb250LXNpemU9IjE0IiBsZW5ndGhBZGp1c3Q9InNwYWNpbmciIHRleHRMZW5ndGg9IjcyIiB4PSI1Ni41IiB5PSI3MzYuNDk1MSI+Sm9oYW5zc29uPC90ZXh0PjwvZz48IS0tZW50aXR5IElzYWJlbGxhU2NobWlkdC0tPjxnIGlkPSJlbGVtX0lzYWJlbGxhU2NobWlkdCI+PHJlY3QgZmlsbD0iI0ZGRkZDQyIgaGVpZ2h0PSI1MS4yOTY5IiByeD0iMi41IiByeT0iMi41IiBzdHlsZT0ic3Ryb2tlOiMxODE4MTg7c3Ryb2tlLXdpZHRoOjAuNTsiIHdpZHRoPSIxMzEiIHg9IjEyLjUiIHk9IjE3LjUiLz48aW1hZ2UgaGVpZ2h0PSIxNiIgd2lkdGg9IjE2IiB4PSIxMTguNSIgeGxpbms6aHJlZj0iZGF0YTppbWFnZS9wbmc7YmFzZTY0LGlWQk9SdzBLR2dvQUFBQU5TVWhFVWdBQUFCQUFBQUFRQ0FZQUFBQWY4LzloQUFBQVQwbEVRVlI0WG1OZ3dBMytJV0dTd2IvLy83ZitoMkVRSDEwQlBvQ2ltUnhEQnQ0QUVLQW9ER0NBb2xpQUFiSTBJOXVNamtrR1pHbENCZ05yQU1WK2gya2syUkJzR3JDSllRWDRGR0tWQXdBc0FIZEhpVElnUndBQUFBQkpSVTVFcmtKZ2dnPT0iIHk9IjI3LjUiLz48dGV4dCBmaWxsPSIjMDAwMDAwIiBmb250LWZhbWlseT0ic2Fucy1zZXJpZiIgZm9udC1zaXplPSIxNCIgbGVuZ3RoQWRqdXN0PSJzcGFjaW5nIiB0ZXh0TGVuZ3RoPSI1MSIgeD0iMjIuNSIgeT0iNTUuNDk1MSI+SXNhYmVsbGE8L3RleHQ+PHRleHQgZmlsbD0iIzAwMDAwMCIgZm9udC1mYW1pbHk9InNhbnMtc2VyaWYiIGZvbnQtc2l6ZT0iMTQiIGxlbmd0aEFkanVzdD0ic3BhY2luZyIgdGV4dExlbmd0aD0iNCIgeD0iNzMuNSIgeT0iNTUuNDk1MSI+JiMxNjA7PC90ZXh0Pjx0ZXh0IGZpbGw9IiMwMDAwMDAiIGZvbnQtZmFtaWx5PSJzYW5zLXNlcmlmIiBmb250LXNpemU9IjE0IiBsZW5ndGhBZGp1c3Q9InNwYWNpbmciIHRleHRMZW5ndGg9IjU2IiB4PSI3Ny41IiB5PSI1NS40OTUxIj5TY2htaWR0PC90ZXh0PjwvZz48IS0tZW50aXR5IEJqP3JuUmFzbXVzc2VuLS0+PGcgaWQ9ImVsZW1fQmomIzI0NjtyblJhc211c3NlbiI+PHJlY3QgZmlsbD0iI0ZGRkZDQyIgaGVpZ2h0PSI1MS4yOTY5IiByeD0iMi41IiByeT0iMi41IiBzdHlsZT0ic3Ryb2tlOiMxODE4MTg7c3Ryb2tlLXdpZHRoOjAuNTsiIHdpZHRoPSIxNDIiIHg9IjciIHk9IjUwNi41Ii8+PGltYWdlIGhlaWdodD0iMTYiIHdpZHRoPSIxNiIgeD0iMTI0IiB4bGluazpocmVmPSJkYXRhOmltYWdlL3BuZztiYXNlNjQsaVZCT1J3MEtHZ29BQUFBTlNVaEVVZ0FBQUJBQUFBQVFDQVlBQUFBZjgvOWhBQUFBVDBsRVFWUjRYbU5nd0EzK0lXR1N3Yi8vLzdmK2gyRVFIMTBCUG9DaW1SeERCdDRBRUtBb0RHQ0FvbGlBQWJJMEk5dU1qa2tHWkdsQ0JnTnJBTVYraDJrazJSQnNHckNKWVFYNEZHS1ZBd0FzQUhkSGlUSWdSd0FBQUFCSlJVNUVya0pnZ2c9PSIgeT0iNTE2LjUiLz48dGV4dCBmaWxsPSIjMDAwMDAwIiBmb250LWZhbWlseT0ic2Fucy1zZXJpZiIgZm9udC1zaXplPSIxNCIgbGVuZ3RoQWRqdXN0PSJzcGFjaW5nIiB0ZXh0TGVuZ3RoPSIzNiIgeD0iMTciIHk9IjU0NC40OTUxIj5CaiYjMjQ2O3JuPC90ZXh0Pjx0ZXh0IGZpbGw9IiMwMDAwMDAiIGZvbnQtZmFtaWx5PSJzYW5zLXNlcmlmIiBmb250LXNpemU9IjE0IiBsZW5ndGhBZGp1c3Q9InNwYWNpbmciIHRleHRMZW5ndGg9IjQiIHg9IjUzIiB5PSI1NDQuNDk1MSI+JiMxNjA7PC90ZXh0Pjx0ZXh0IGZpbGw9IiMwMDAwMDAiIGZvbnQtZmFtaWx5PSJzYW5zLXNlcmlmIiBmb250LXNpemU9IjE0IiBsZW5ndGhBZGp1c3Q9InNwYWNpbmciIHRleHRMZW5ndGg9IjgyIiB4PSI1NyIgeT0iNTQ0LjQ5NTEiPlJhc211c3NlbjwvdGV4dD48L2c+PCEtLWVudGl0eSBMaWFtQmxhY2t3b29kLS0+PGcgaWQ9ImVsZW1fTGlhbUJsYWNrd29vZCI+PHJlY3QgZmlsbD0iI0ZGRkZDQyIgaGVpZ2h0PSI1MS4yOTY5IiByeD0iMi41IiByeT0iMi41IiBzdHlsZT0ic3Ryb2tlOiMxODE4MTg7c3Ryb2tlLXdpZHRoOjAuNTsiIHdpZHRoPSIxMzAiIHg9IjEzIiB5PSIxMDEyLjUiLz48aW1hZ2UgaGVpZ2h0PSIxNiIgd2lkdGg9IjE2IiB4PSIxMTgiIHhsaW5rOmhyZWY9ImRhdGE6aW1hZ2UvcG5nO2Jhc2U2NCxpVkJPUncwS0dnb0FBQUFOU1VoRVVnQUFBQkFBQUFBUUNBWUFBQUFmOC85aEFBQUFUMGxFUVZSNFhtTmd3QTMrSVdHU3diLy8vN2YraDJFUUgxMEJQb0NpbVJ4REJ0NEFFS0FvREdDQW9saUFBYkkwSTl1TWpra0daR2xDQmdOckFNVitoMmtrMlJCc0dyQ0pZUVg0RkdLVkF3QXNBSGRIaVRJZ1J3QUFBQUJKUlU1RXJrSmdnZz09IiB5PSIxMDIyLjUiLz48dGV4dCBmaWxsPSIjMDAwMDAwIiBmb250LWZhbWlseT0ic2Fucy1zZXJpZiIgZm9udC1zaXplPSIxNCIgbGVuZ3RoQWRqdXN0PSJzcGFjaW5nIiB0ZXh0TGVuZ3RoPSIzMSIgeD0iMjMiIHk9IjEwNTAuNDk1MSI+TGlhbTwvdGV4dD48dGV4dCBmaWxsPSIjMDAwMDAwIiBmb250LWZhbWlseT0ic2Fucy1zZXJpZiIgZm9udC1zaXplPSIxNCIgbGVuZ3RoQWRqdXN0PSJzcGFjaW5nIiB0ZXh0TGVuZ3RoPSI0IiB4PSI1NCIgeT0iMTA1MC40OTUxIj4mIzE2MDs8L3RleHQ+PHRleHQgZmlsbD0iIzAwMDAwMCIgZm9udC1mYW1pbHk9InNhbnMtc2VyaWYiIGZvbnQtc2l6ZT0iMTQiIGxlbmd0aEFkanVzdD0ic3BhY2luZyIgdGV4dExlbmd0aD0iNzUiIHg9IjU4IiB5PSIxMDUwLjQ5NTEiPkJsYWNrd29vZDwvdGV4dD48L2c+PCEtLWVudGl0eSBFbHNhRXJpa3Nlbi0tPjxnIGlkPSJlbGVtX0Vsc2FFcmlrc2VuIj48cmVjdCBmaWxsPSIjRkZGRkNDIiBoZWlnaHQ9IjUxLjI5NjkiIHJ4PSIyLjUiIHJ5PSIyLjUiIHN0eWxlPSJzdHJva2U6IzE4MTgxODtzdHJva2Utd2lkdGg6MC41OyIgd2lkdGg9IjEwMyIgeD0iMjYuNSIgeT0iOTAyLjUiLz48aW1hZ2UgaGVpZ2h0PSIxNiIgd2lkdGg9IjE2IiB4PSIxMDQuNSIgeGxpbms6aHJlZj0iZGF0YTppbWFnZS9wbmc7YmFzZTY0LGlWQk9SdzBLR2dvQUFBQU5TVWhFVWdBQUFCQUFBQUFRQ0FZQUFBQWY4LzloQUFBQVQwbEVRVlI0WG1OZ3dBMytJV0dTd2IvLy83ZitoMkVRSDEwQlBvQ2ltUnhEQnQ0QUVLQW9ER0NBb2xpQUFiSTBJOXVNamtrR1pHbENCZ05yQU1WK2gya2syUkJzR3JDSllRWDRGR0tWQXdBc0FIZEhpVElnUndBQUFBQkpSVTVFcmtKZ2dnPT0iIHk9IjkxMi41Ii8+PHRleHQgZmlsbD0iIzAwMDAwMCIgZm9udC1mYW1pbHk9InNhbnMtc2VyaWYiIGZvbnQtc2l6ZT0iMTQiIGxlbmd0aEFkanVzdD0ic3BhY2luZyIgdGV4dExlbmd0aD0iMjgiIHg9IjM2LjUiIHk9Ijk0MC40OTUxIj5FbHNhPC90ZXh0Pjx0ZXh0IGZpbGw9IiMwMDAwMDAiIGZvbnQtZmFtaWx5PSJzYW5zLXNlcmlmIiBmb250LXNpemU9IjE0IiBsZW5ndGhBZGp1c3Q9InNwYWNpbmciIHRleHRMZW5ndGg9IjQiIHg9IjY0LjUiIHk9Ijk0MC40OTUxIj4mIzE2MDs8L3RleHQ+PHRleHQgZmlsbD0iIzAwMDAwMCIgZm9udC1mYW1pbHk9InNhbnMtc2VyaWYiIGZvbnQtc2l6ZT0iMTQiIGxlbmd0aEFkanVzdD0ic3BhY2luZyIgdGV4dExlbmd0aD0iNTEiIHg9IjY4LjUiIHk9Ijk0MC40OTUxIj5Fcmlrc2VuPC90ZXh0PjwvZz48IS0tZW50aXR5IEx1a2FzQmF1ZXItLT48ZyBpZD0iZWxlbV9MdWthc0JhdWVyIj48cmVjdCBmaWxsPSIjRkZGRkNDIiBoZWlnaHQ9IjUxLjI5NjkiIHJ4PSIyLjUiIHJ5PSIyLjUiIHN0eWxlPSJzdHJva2U6IzE4MTgxODtzdHJva2Utd2lkdGg6MC41OyIgd2lkdGg9IjEwNSIgeD0iMjUuNSIgeT0iMjA0LjUiLz48aW1hZ2UgaGVpZ2h0PSIxNiIgd2lkdGg9IjE2IiB4PSIxMDUuNSIgeGxpbms6aHJlZj0iZGF0YTppbWFnZS9wbmc7YmFzZTY0LGlWQk9SdzBLR2dvQUFBQU5TVWhFVWdBQUFCQUFBQUFRQ0FZQUFBQWY4LzloQUFBQVQwbEVRVlI0WG1OZ3dBMytJV0dTd2IvLy83ZitoMkVRSDEwQlBvQ2ltUnhEQnQ0QUVLQW9ER0NBb2xpQUFiSTBJOXVNamtrR1pHbENCZ05yQU1WK2gya2syUkJzR3JDSllRWDRGR0tWQXdBc0FIZEhpVElnUndBQUFBQkpSVTVFcmtKZ2dnPT0iIHk9IjIxNC41Ii8+PHRleHQgZmlsbD0iIzAwMDAwMCIgZm9udC1mYW1pbHk9InNhbnMtc2VyaWYiIGZvbnQtc2l6ZT0iMTQiIGxlbmd0aEFkanVzdD0ic3BhY2luZyIgdGV4dExlbmd0aD0iNDAiIHg9IjM1LjUiIHk9IjI0Mi40OTUxIj5MdWthczwvdGV4dD48dGV4dCBmaWxsPSIjMDAwMDAwIiBmb250LWZhbWlseT0ic2Fucy1zZXJpZiIgZm9udC1zaXplPSIxNCIgbGVuZ3RoQWRqdXN0PSJzcGFjaW5nIiB0ZXh0TGVuZ3RoPSI0IiB4PSI3NS41IiB5PSIyNDIuNDk1MSI+JiMxNjA7PC90ZXh0Pjx0ZXh0IGZpbGw9IiMwMDAwMDAiIGZvbnQtZmFtaWx5PSJzYW5zLXNlcmlmIiBmb250LXNpemU9IjE0IiBsZW5ndGhBZGp1c3Q9InNwYWNpbmciIHRleHRMZW5ndGg9IjQxIiB4PSI3OS41IiB5PSIyNDIuNDk1MSI+QmF1ZXI8L3RleHQ+PC9nPjwhLS1lbnRpdHkgTWFsaW5BbmRlcnNzb24tLT48ZyBpZD0iZWxlbV9NYWxpbkFuZGVyc3NvbiI+PHJlY3QgZmlsbD0iI0ZGRkZDQyIgaGVpZ2h0PSI1MS4yOTY5IiByeD0iMi41IiByeT0iMi41IiBzdHlsZT0ic3Ryb2tlOiMxODE4MTg7c3Ryb2tlLXdpZHRoOjAuNTsiIHdpZHRoPSIxMzQiIHg9IjExIiB5PSIxMTc3LjUiLz48aW1hZ2UgaGVpZ2h0PSIxNiIgd2lkdGg9IjE2IiB4PSIxMjAiIHhsaW5rOmhyZWY9ImRhdGE6aW1hZ2UvcG5nO2Jhc2U2NCxpVkJPUncwS0dnb0FBQUFOU1VoRVVnQUFBQkFBQUFBUUNBWUFBQUFmOC85aEFBQUFUMGxFUVZSNFhtTmd3QTMrSVdHU3diLy8vN2YraDJFUUgxMEJQb0NpbVJ4REJ0NEFFS0FvREdDQW9saUFBYkkwSTl1TWpra0daR2xDQmdOckFNVitoMmtrMlJCc0dyQ0pZUVg0RkdLVkF3QXNBSGRIaVRJZ1J3QUFBQUJKUlU1RXJrSmdnZz09IiB5PSIxMTg3LjUiLz48dGV4dCBmaWxsPSIjMDAwMDAwIiBmb250LWZhbWlseT0ic2Fucy1zZXJpZiIgZm9udC1zaXplPSIxNCIgbGVuZ3RoQWRqdXN0PSJzcGFjaW5nIiB0ZXh0TGVuZ3RoPSIzNSIgeD0iMjEiIHk9IjEyMTUuNDk1MSI+TWFsaW48L3RleHQ+PHRleHQgZmlsbD0iIzAwMDAwMCIgZm9udC1mYW1pbHk9InNhbnMtc2VyaWYiIGZvbnQtc2l6ZT0iMTQiIGxlbmd0aEFkanVzdD0ic3BhY2luZyIgdGV4dExlbmd0aD0iNCIgeD0iNTYiIHk9IjEyMTUuNDk1MSI+JiMxNjA7PC90ZXh0Pjx0ZXh0IGZpbGw9IiMwMDAwMDAiIGZvbnQtZmFtaWx5PSJzYW5zLXNlcmlmIiBmb250LXNpemU9IjE0IiBsZW5ndGhBZGp1c3Q9InNwYWNpbmciIHRleHRMZW5ndGg9Ijc1IiB4PSI2MCIgeT0iMTIxNS40OTUxIj5BbmRlcnNzb248L3RleHQ+PC9nPjxnIGlkPSJlbGVtX1VDMiI+PGVsbGlwc2UgY3g9IjY3NS4wODI4IiBjeT0iMTQ3LjExNjYiIGZpbGw9IiNBREQ4RTYiIHJ4PSIxNDguNTgyOCIgcnk9IjMyLjExNjYiIHN0eWxlPSJzdHJva2U6IzAwMDAwMDtzdHJva2Utd2lkdGg6MC41OyIvPjx0ZXh0IGZpbGw9IiMwMDAwMDAiIGZvbnQtZmFtaWx5PSJzYW5zLXNlcmlmIiBmb250LXNpemU9IjE0IiBsZW5ndGhBZGp1c3Q9InNwYWNpbmciIHRleHRMZW5ndGg9IjM1IiB4PSI2MzQuNTgyOCIgeT0iMTQwLjY1MDciPiYjMTcxO3VzZTwvdGV4dD48dGV4dCBmaWxsPSIjMDAwMDAwIiBmb250LWZhbWlseT0ic2Fucy1zZXJpZiIgZm9udC1zaXplPSIxNCIgbGVuZ3RoQWRqdXN0PSJzcGFjaW5nIiB0ZXh0TGVuZ3RoPSI0IiB4PSI2NjkuNTgyOCIgeT0iMTQwLjY1MDciPiYjMTYwOzwvdGV4dD48dGV4dCBmaWxsPSIjMDAwMDAwIiBmb250LWZhbWlseT0ic2Fucy1zZXJpZiIgZm9udC1zaXplPSIxNCIgbGVuZ3RoQWRqdXN0PSJzcGFjaW5nIiB0ZXh0TGVuZ3RoPSI0MiIgeD0iNjczLjU4MjgiIHk9IjE0MC42NTA3Ij5jYXNlJiMxODc7PC90ZXh0Pjx0ZXh0IGZpbGw9IiMwMDAwMDAiIGZvbnQtZmFtaWx5PSJzYW5zLXNlcmlmIiBmb250LXNpemU9IjE2IiBmb250LXdlaWdodD0iYm9sZCIgbGVuZ3RoQWRqdXN0PSJzcGFjaW5nIiB0ZXh0TGVuZ3RoPSI5MyIgeD0iNTY0LjU4MjgiIHk9IjE1OC44MDQxIj5EZXRlcm1pbmU8L3RleHQ+PHRleHQgZmlsbD0iIzAwMDAwMCIgZm9udC1mYW1pbHk9InNhbnMtc2VyaWYiIGZvbnQtc2l6ZT0iMTYiIGZvbnQtd2VpZ2h0PSJib2xkIiBsZW5ndGhBZGp1c3Q9InNwYWNpbmciIHRleHRMZW5ndGg9IjYiIHg9IjY1Ny41ODI4IiB5PSIxNTguODA0MSI+JiMxNjA7PC90ZXh0Pjx0ZXh0IGZpbGw9IiMwMDAwMDAiIGZvbnQtZmFtaWx5PSJzYW5zLXNlcmlmIiBmb250LXNpemU9IjE2IiBmb250LXdlaWdodD0iYm9sZCIgbGVuZ3RoQWRqdXN0PSJzcGFjaW5nIiB0ZXh0TGVuZ3RoPSIzMyIgeD0iNjYzLjU4MjgiIHk9IjE1OC44MDQxIj5yaXNrPC90ZXh0Pjx0ZXh0IGZpbGw9IiMwMDAwMDAiIGZvbnQtZmFtaWx5PSJzYW5zLXNlcmlmIiBmb250LXNpemU9IjE2IiBmb250LXdlaWdodD0iYm9sZCIgbGVuZ3RoQWRqdXN0PSJzcGFjaW5nIiB0ZXh0TGVuZ3RoPSI2IiB4PSI2OTYuNTgyOCIgeT0iMTU4LjgwNDEiPiYjMTYwOzwvdGV4dD48dGV4dCBmaWxsPSIjMDAwMDAwIiBmb250LWZhbWlseT0ic2Fucy1zZXJpZiIgZm9udC1zaXplPSIxNiIgZm9udC13ZWlnaHQ9ImJvbGQiIGxlbmd0aEFkanVzdD0ic3BhY2luZyIgdGV4dExlbmd0aD0iODMiIHg9IjcwMi41ODI4IiB5PSIxNTguODA0MSI+ZXhwb3N1cmU8L3RleHQ+PC9nPjwhLS1lbnRpdHkgUmlza01hbmFnZXItLT48ZyBpZD0iZWxlbV9SaXNrTWFuYWdlciI+PHJlY3QgZmlsbD0iI0ZGRkZDQyIgaGVpZ2h0PSI1MS4yOTY5IiByeD0iMi41IiByeT0iMi41IiBzdHlsZT0ic3Ryb2tlOiMxODE4MTg7c3Ryb2tlLXdpZHRoOjAuNTsiIHdpZHRoPSIxMTMiIHg9IjI2OC41IiB5PSIyMDQuNSIvPjxpbWFnZSBoZWlnaHQ9IjE2IiB3aWR0aD0iMTYiIHg9IjM1Ni41IiB4bGluazpocmVmPSJkYXRhOmltYWdlL3BuZztiYXNlNjQsaVZCT1J3MEtHZ29BQUFBTlNVaEVVZ0FBQUJBQUFBQVFDQVlBQUFBZjgvOWhBQUFBUkVsRVFWUjRYbU5nR0hiZ0g1RVlBNEFsL3YvZitoOFhScGFIcVVjeEFGMERMczFvaHBDbkdkMFFuQXFJTllBc1E1QTFndzNBcGdoZEE1cG0zTEZCQkI0RjFBUUE1S3dkb0JpZnRVVUFBQUFBU1VWT1JLNUNZSUk9IiB5PSIyMTQuNSIvPjx0ZXh0IGZpbGw9IiMwMDAwMDAiIGZvbnQtZmFtaWx5PSJzYW5zLXNlcmlmIiBmb250LXNpemU9IjE0IiBsZW5ndGhBZGp1c3Q9InNwYWNpbmciIHRleHRMZW5ndGg9IjI5IiB4PSIyNzguNSIgeT0iMjQyLjQ5NTEiPlJpc2s8L3RleHQ+PHRleHQgZmlsbD0iIzAwMDAwMCIgZm9udC1mYW1pbHk9InNhbnMtc2VyaWYiIGZvbnQtc2l6ZT0iMTQiIGxlbmd0aEFkanVzdD0ic3BhY2luZyIgdGV4dExlbmd0aD0iNCIgeD0iMzA3LjUiIHk9IjI0Mi40OTUxIj4mIzE2MDs8L3RleHQ+PHRleHQgZmlsbD0iIzAwMDAwMCIgZm9udC1mYW1pbHk9InNhbnMtc2VyaWYiIGZvbnQtc2l6ZT0iMTQiIGxlbmd0aEFkanVzdD0ic3BhY2luZyIgdGV4dExlbmd0aD0iNjAiIHg9IjMxMS41IiB5PSIyNDIuNDk1MSI+TWFuYWdlcjwvdGV4dD48L2c+PGcgaWQ9ImVsZW1fVUM4Ij48ZWxsaXBzZSBjeD0iNjc0LjgwMzEiIGN5PSIyNzkuNzYwNiIgZmlsbD0iI0FERDhFNiIgcng9IjE1MS44MDMxIiByeT0iMzIuNzYwNiIgc3R5bGU9InN0cm9rZTojMDAwMDAwO3N0cm9rZS13aWR0aDowLjU7Ii8+PHRleHQgZmlsbD0iIzAwMDAwMCIgZm9udC1mYW1pbHk9InNhbnMtc2VyaWYiIGZvbnQtc2l6ZT0iMTQiIGxlbmd0aEFkanVzdD0ic3BhY2luZyIgdGV4dExlbmd0aD0iMzUiIHg9IjYzNC4zMDMxIiB5PSIyNzMuMjk0OCI+JiMxNzE7dXNlPC90ZXh0Pjx0ZXh0IGZpbGw9IiMwMDAwMDAiIGZvbnQtZmFtaWx5PSJzYW5zLXNlcmlmIiBmb250LXNpemU9IjE0IiBsZW5ndGhBZGp1c3Q9InNwYWNpbmciIHRleHRMZW5ndGg9IjQiIHg9IjY2OS4zMDMxIiB5PSIyNzMuMjk0OCI+JiMxNjA7PC90ZXh0Pjx0ZXh0IGZpbGw9IiMwMDAwMDAiIGZvbnQtZmFtaWx5PSJzYW5zLXNlcmlmIiBmb250LXNpemU9IjE0IiBsZW5ndGhBZGp1c3Q9InNwYWNpbmciIHRleHRMZW5ndGg9IjQyIiB4PSI2NzMuMzAzMSIgeT0iMjczLjI5NDgiPmNhc2UmIzE4Nzs8L3RleHQ+PHRleHQgZmlsbD0iIzAwMDAwMCIgZm9udC1mYW1pbHk9InNhbnMtc2VyaWYiIGZvbnQtc2l6ZT0iMTYiIGZvbnQtd2VpZ2h0PSJib2xkIiBsZW5ndGhBZGp1c3Q9InNwYWNpbmciIHRleHRMZW5ndGg9IjEwOCIgeD0iNTYwLjMwMzEiIHk9IjI5MS40NDgxIj5WdWxuZXJhYmlsaXR5PC90ZXh0Pjx0ZXh0IGZpbGw9IiMwMDAwMDAiIGZvbnQtZmFtaWx5PSJzYW5zLXNlcmlmIiBmb250LXNpemU9IjE2IiBmb250LXdlaWdodD0iYm9sZCIgbGVuZ3RoQWRqdXN0PSJzcGFjaW5nIiB0ZXh0TGVuZ3RoPSI2IiB4PSI2NjguMzAzMSIgeT0iMjkxLjQ0ODEiPiYjMTYwOzwvdGV4dD48dGV4dCBmaWxsPSIjMDAwMDAwIiBmb250LWZhbWlseT0ic2Fucy1zZXJpZiIgZm9udC1zaXplPSIxNiIgZm9udC13ZWlnaHQ9ImJvbGQiIGxlbmd0aEFkanVzdD0ic3BhY2luZyIgdGV4dExlbmd0aD0iMTE1IiB4PSI2NzQuMzAzMSIgeT0iMjkxLjQ0ODEiPk1hbmFnZW1lbnQ8L3RleHQ+PC9nPjwhLS1lbnRpdHkgSW5mb3JtYXRpb25TZWN1cml0eU1hbmFnZXItLT48ZyBpZD0iZWxlbV9JbmZvcm1hdGlvblNlY3VyaXR5TWFuYWdlciI+PHJlY3QgZmlsbD0iI0ZGRkZDQyIgaGVpZ2h0PSI1MS4yOTY5IiByeD0iMi41IiByeT0iMi41IiBzdHlsZT0ic3Ryb2tlOiMxODE4MTg7c3Ryb2tlLXdpZHRoOjAuNTsiIHdpZHRoPSIyMjAiIHg9IjIxNSIgeT0iMzY5LjUiLz48aW1hZ2UgaGVpZ2h0PSIxNiIgd2lkdGg9IjE2IiB4PSI0MTAiIHhsaW5rOmhyZWY9ImRhdGE6aW1hZ2UvcG5nO2Jhc2U2NCxpVkJPUncwS0dnb0FBQUFOU1VoRVVnQUFBQkFBQUFBUUNBWUFBQUFmOC85aEFBQUFSRWxFUVZSNFhtTmdHSGJnSDVFWUE0QWwvdi9mK2g4WFJwYUhxVWN4QUYwRExzMW9ocENuR2QwUW5BcUlOWUFzUTVBMWd3M0FwZ2hkQTVwbTNMRkJCQjRGMUFRQTVLd2RvQmlmdFVVQUFBQUFTVVZPUks1Q1lJST0iIHk9IjM3OS41Ii8+PHRleHQgZmlsbD0iIzAwMDAwMCIgZm9udC1mYW1pbHk9InNhbnMtc2VyaWYiIGZvbnQtc2l6ZT0iMTQiIGxlbmd0aEFkanVzdD0ic3BhY2luZyIgdGV4dExlbmd0aD0iNzciIHg9IjIyNSIgeT0iNDA3LjQ5NTEiPkluZm9ybWF0aW9uPC90ZXh0Pjx0ZXh0IGZpbGw9IiMwMDAwMDAiIGZvbnQtZmFtaWx5PSJzYW5zLXNlcmlmIiBmb250LXNpemU9IjE0IiBsZW5ndGhBZGp1c3Q9InNwYWNpbmciIHRleHRMZW5ndGg9IjQiIHg9IjMwMiIgeT0iNDA3LjQ5NTEiPiYjMTYwOzwvdGV4dD48dGV4dCBmaWxsPSIjMDAwMDAwIiBmb250LWZhbWlseT0ic2Fucy1zZXJpZiIgZm9udC1zaXplPSIxNCIgbGVuZ3RoQWRqdXN0PSJzcGFjaW5nIiB0ZXh0TGVuZ3RoPSI1NSIgeD0iMzA2IiB5PSI0MDcuNDk1MSI+U2VjdXJpdHk8L3RleHQ+PHRleHQgZmlsbD0iIzAwMDAwMCIgZm9udC1mYW1pbHk9InNhbnMtc2VyaWYiIGZvbnQtc2l6ZT0iMTQiIGxlbmd0aEFkanVzdD0ic3BhY2luZyIgdGV4dExlbmd0aD0iNCIgeD0iMzYxIiB5PSI0MDcuNDk1MSI+JiMxNjA7PC90ZXh0Pjx0ZXh0IGZpbGw9IiMwMDAwMDAiIGZvbnQtZmFtaWx5PSJzYW5zLXNlcmlmIiBmb250LXNpemU9IjE0IiBsZW5ndGhBZGp1c3Q9InNwYWNpbmciIHRleHRMZW5ndGg9IjYwIiB4PSIzNjUiIHk9IjQwNy40OTUxIj5NYW5hZ2VyPC90ZXh0PjwvZz48ZyBpZD0iZWxlbV9VQzMiPjxlbGxpcHNlIGN4PSI2NzUuMTIyNCIgY3k9IjU4Ny4xOTM1IiBmaWxsPSIjQUREOEU2IiByeD0iMTI0LjYyMjQiIHJ5PSIyNy42OTM1IiBzdHlsZT0ic3Ryb2tlOiMwMDAwMDA7c3Ryb2tlLXdpZHRoOjAuNTsiLz48dGV4dCBmaWxsPSIjMDAwMDAwIiBmb250LWZhbWlseT0ic2Fucy1zZXJpZiIgZm9udC1zaXplPSIxNCIgbGVuZ3RoQWRqdXN0PSJzcGFjaW5nIiB0ZXh0TGVuZ3RoPSIzNSIgeD0iNjM0LjYyMjQiIHk9IjU4MC43Mjc3Ij4mIzE3MTt1c2U8L3RleHQ+PHRleHQgZmlsbD0iIzAwMDAwMCIgZm9udC1mYW1pbHk9InNhbnMtc2VyaWYiIGZvbnQtc2l6ZT0iMTQiIGxlbmd0aEFkanVzdD0ic3BhY2luZyIgdGV4dExlbmd0aD0iNCIgeD0iNjY5LjYyMjQiIHk9IjU4MC43Mjc3Ij4mIzE2MDs8L3RleHQ+PHRleHQgZmlsbD0iIzAwMDAwMCIgZm9udC1mYW1pbHk9InNhbnMtc2VyaWYiIGZvbnQtc2l6ZT0iMTQiIGxlbmd0aEFkanVzdD0ic3BhY2luZyIgdGV4dExlbmd0aD0iNDIiIHg9IjY3My42MjI0IiB5PSI1ODAuNzI3NyI+Y2FzZSYjMTg3OzwvdGV4dD48dGV4dCBmaWxsPSIjMDAwMDAwIiBmb250LWZhbWlseT0ic2Fucy1zZXJpZiIgZm9udC1zaXplPSIxNiIgZm9udC13ZWlnaHQ9ImJvbGQiIGxlbmd0aEFkanVzdD0ic3BhY2luZyIgdGV4dExlbmd0aD0iODMiIHg9IjU5NS4xMjI0IiB5PSI1OTguODgxIj5HZW5lcmF0ZTwvdGV4dD48dGV4dCBmaWxsPSIjMDAwMDAwIiBmb250LWZhbWlseT0ic2Fucy1zZXJpZiIgZm9udC1zaXplPSIxNiIgZm9udC13ZWlnaHQ9ImJvbGQiIGxlbmd0aEFkanVzdD0ic3BhY2luZyIgdGV4dExlbmd0aD0iNiIgeD0iNjc4LjEyMjQiIHk9IjU5OC44ODEiPiYjMTYwOzwvdGV4dD48dGV4dCBmaWxsPSIjMDAwMDAwIiBmb250LWZhbWlseT0ic2Fucy1zZXJpZiIgZm9udC1zaXplPSIxNiIgZm9udC13ZWlnaHQ9ImJvbGQiIGxlbmd0aEFkanVzdD0ic3BhY2luZyIgdGV4dExlbmd0aD0iNzEiIHg9IjY4NC4xMjI0IiB5PSI1OTguODgxIj5SZXBvcnRzPC90ZXh0PjwvZz48IS0tZW50aXR5IFByb2R1Y3RPd25lci0tPjxnIGlkPSJlbGVtX1Byb2R1Y3RPd25lciI+PHJlY3QgZmlsbD0iI0ZGRkZDQyIgaGVpZ2h0PSI1MS4yOTY5IiByeD0iMi41IiByeT0iMi41IiBzdHlsZT0ic3Ryb2tlOiMxODE4MTg7c3Ryb2tlLXdpZHRoOjAuNTsiIHdpZHRoPSIxMjMiIHg9IjI2My41IiB5PSIxMDEyLjUiLz48aW1hZ2UgaGVpZ2h0PSIxNiIgd2lkdGg9IjE2IiB4PSIzNjEuNSIgeGxpbms6aHJlZj0iZGF0YTppbWFnZS9wbmc7YmFzZTY0LGlWQk9SdzBLR2dvQUFBQU5TVWhFVWdBQUFCQUFBQUFRQ0FZQUFBQWY4LzloQUFBQVJFbEVRVlI0WG1OZ0dIYmdINUVZQTRBbC92L2YraDhYUnBhSHFVY3hBRjBETHMxb2hwQ25HZDBRbkFxSU5ZQXNRNUExZ3czQXBnaGRBNXBtM0xGQkJCNEYxQVFBNUt3ZG9CaWZ0VVVBQUFBQVNVVk9SSzVDWUlJPSIgeT0iMTAyMi41Ii8+PHRleHQgZmlsbD0iIzAwMDAwMCIgZm9udC1mYW1pbHk9InNhbnMtc2VyaWYiIGZvbnQtc2l6ZT0iMTQiIGxlbmd0aEFkanVzdD0ic3BhY2luZyIgdGV4dExlbmd0aD0iNTQiIHg9IjI3My41IiB5PSIxMDUwLjQ5NTEiPlByb2R1Y3Q8L3RleHQ+PHRleHQgZmlsbD0iIzAwMDAwMCIgZm9udC1mYW1pbHk9InNhbnMtc2VyaWYiIGZvbnQtc2l6ZT0iMTQiIGxlbmd0aEFkanVzdD0ic3BhY2luZyIgdGV4dExlbmd0aD0iNCIgeD0iMzI3LjUiIHk9IjEwNTAuNDk1MSI+JiMxNjA7PC90ZXh0Pjx0ZXh0IGZpbGw9IiMwMDAwMDAiIGZvbnQtZmFtaWx5PSJzYW5zLXNlcmlmIiBmb250LXNpemU9IjE0IiBsZW5ndGhBZGp1c3Q9InNwYWNpbmciIHRleHRMZW5ndGg9IjQ1IiB4PSIzMzEuNSIgeT0iMTA1MC40OTUxIj5Pd25lcjwvdGV4dD48L2c+PCEtLWVudGl0eSBJVE9wZXJhdGlvbnMtLT48ZyBpZD0iZWxlbV9JVE9wZXJhdGlvbnMiPjxyZWN0IGZpbGw9IiNGRkZGQ0MiIGhlaWdodD0iNTEuMjk2OSIgcng9IjIuNSIgcnk9IjIuNSIgc3R5bGU9InN0cm9rZTojMTgxODE4O3N0cm9rZS13aWR0aDowLjU7IiB3aWR0aD0iMTEyIiB4PSIyNjkiIHk9IjUwNi41Ii8+PGltYWdlIGhlaWdodD0iMTYiIHdpZHRoPSIxNiIgeD0iMzU2IiB4bGluazpocmVmPSJkYXRhOmltYWdlL3BuZztiYXNlNjQsaVZCT1J3MEtHZ29BQUFBTlNVaEVVZ0FBQUJBQUFBQVFDQVlBQUFBZjgvOWhBQUFBUkVsRVFWUjRYbU5nR0hiZ0g1RVlBNEFsL3YvZitoOFhScGFIcVVjeEFGMERMczFvaHBDbkdkMFFuQXFJTllBc1E1QTFndzNBcGdoZEE1cG0zTEZCQkI0RjFBUUE1S3dkb0JpZnRVVUFBQUFBU1VWT1JLNUNZSUk9IiB5PSI1MTYuNSIvPjx0ZXh0IGZpbGw9IiMwMDAwMDAiIGZvbnQtZmFtaWx5PSJzYW5zLXNlcmlmIiBmb250LXNpemU9IjE0IiBsZW5ndGhBZGp1c3Q9InNwYWNpbmciIHRleHRMZW5ndGg9IjEyIiB4PSIyNzkiIHk9IjU0NC40OTUxIj5JVDwvdGV4dD48dGV4dCBmaWxsPSIjMDAwMDAwIiBmb250LWZhbWlseT0ic2Fucy1zZXJpZiIgZm9udC1zaXplPSIxNCIgbGVuZ3RoQWRqdXN0PSJzcGFjaW5nIiB0ZXh0TGVuZ3RoPSI0IiB4PSIyOTEiIHk9IjU0NC40OTUxIj4mIzE2MDs8L3RleHQ+PHRleHQgZmlsbD0iIzAwMDAwMCIgZm9udC1mYW1pbHk9InNhbnMtc2VyaWYiIGZvbnQtc2l6ZT0iMTQiIGxlbmd0aEFkanVzdD0ic3BhY2luZyIgdGV4dExlbmd0aD0iNzYiIHg9IjI5NSIgeT0iNTQ0LjQ5NTEiPk9wZXJhdGlvbnM8L3RleHQ+PC9nPjwhLS1lbnRpdHkgSW5jaWRlbnRSZXNwb25zZUxlYWQtLT48ZyBpZD0iZWxlbV9JbmNpZGVudFJlc3BvbnNlTGVhZCI+PHJlY3QgZmlsbD0iI0ZGRkZDQyIgaGVpZ2h0PSI1MS4yOTY5IiByeD0iMi41IiByeT0iMi41IiBzdHlsZT0ic3Ryb2tlOiMxODE4MTg7c3Ryb2tlLXdpZHRoOjAuNTsiIHdpZHRoPSIxODciIHg9IjIzMS41IiB5PSI2OTguNSIvPjxpbWFnZSBoZWlnaHQ9IjE2IiB3aWR0aD0iMTYiIHg9IjM5My41IiB4bGluazpocmVmPSJkYXRhOmltYWdlL3BuZztiYXNlNjQsaVZCT1J3MEtHZ29BQUFBTlNVaEVVZ0FBQUJBQUFBQVFDQVlBQUFBZjgvOWhBQUFBUkVsRVFWUjRYbU5nR0hiZ0g1RVlBNEFsL3YvZitoOFhScGFIcVVjeEFGMERMczFvaHBDbkdkMFFuQXFJTllBc1E1QTFndzNBcGdoZEE1cG0zTEZCQkI0RjFBUUE1S3dkb0JpZnRVVUFBQUFBU1VWT1JLNUNZSUk9IiB5PSI3MDguNSIvPjx0ZXh0IGZpbGw9IiMwMDAwMDAiIGZvbnQtZmFtaWx5PSJzYW5zLXNlcmlmIiBmb250LXNpemU9IjE0IiBsZW5ndGhBZGp1c3Q9InNwYWNpbmciIHRleHRMZW5ndGg9IjU1IiB4PSIyNDEuNSIgeT0iNzM2LjQ5NTEiPkluY2lkZW50PC90ZXh0Pjx0ZXh0IGZpbGw9IiMwMDAwMDAiIGZvbnQtZmFtaWx5PSJzYW5zLXNlcmlmIiBmb250LXNpemU9IjE0IiBsZW5ndGhBZGp1c3Q9InNwYWNpbmciIHRleHRMZW5ndGg9IjQiIHg9IjI5Ni41IiB5PSI3MzYuNDk1MSI+JiMxNjA7PC90ZXh0Pjx0ZXh0IGZpbGw9IiMwMDAwMDAiIGZvbnQtZmFtaWx5PSJzYW5zLXNlcmlmIiBmb250LXNpemU9IjE0IiBsZW5ndGhBZGp1c3Q9InNwYWNpbmciIHRleHRMZW5ndGg9IjcxIiB4PSIzMDAuNSIgeT0iNzM2LjQ5NTEiPlJlc3BvbnNlPC90ZXh0Pjx0ZXh0IGZpbGw9IiMwMDAwMDAiIGZvbnQtZmFtaWx5PSJzYW5zLXNlcmlmIiBmb250LXNpemU9IjE0IiBsZW5ndGhBZGp1c3Q9InNwYWNpbmciIHRleHRMZW5ndGg9IjQiIHg9IjM3MS41IiB5PSI3MzYuNDk1MSI+JiMxNjA7PC90ZXh0Pjx0ZXh0IGZpbGw9IiMwMDAwMDAiIGZvbnQtZmFtaWx5PSJzYW5zLXNlcmlmIiBmb250LXNpemU9IjE0IiBsZW5ndGhBZGp1c3Q9InNwYWNpbmciIHRleHRMZW5ndGg9IjMzIiB4PSIzNzUuNSIgeT0iNzM2LjQ5NTEiPkxlYWQ8L3RleHQ+PC9nPjxnIGlkPSJlbGVtX1VDNyI+PGVsbGlwc2UgY3g9IjY3NS4wODA3IiBjeT0iMTA0OC4xOTM1IiBmaWxsPSIjQUREOEU2IiByeD0iMTAwLjU4MDciIHJ5PSIyNy42OTM1IiBzdHlsZT0ic3Ryb2tlOiMwMDAwMDA7c3Ryb2tlLXdpZHRoOjAuNTsiLz48dGV4dCBmaWxsPSIjMDAwMDAwIiBmb250LWZhbWlseT0ic2Fucy1zZXJpZiIgZm9udC1zaXplPSIxNCIgbGVuZ3RoQWRqdXN0PSJzcGFjaW5nIiB0ZXh0TGVuZ3RoPSIzNSIgeD0iNjM0LjU4MDciIHk9IjEwNDEuNzI3NyI+JiMxNzE7dXNlPC90ZXh0Pjx0ZXh0IGZpbGw9IiMwMDAwMDAiIGZvbnQtZmFtaWx5PSJzYW5zLXNlcmlmIiBmb250LXNpemU9IjE0IiBsZW5ndGhBZGp1c3Q9InNwYWNpbmciIHRleHRMZW5ndGg9IjQiIHg9IjY2OS41ODA3IiB5PSIxMDQxLjcyNzciPiYjMTYwOzwvdGV4dD48dGV4dCBmaWxsPSIjMDAwMDAwIiBmb250LWZhbWlseT0ic2Fucy1zZXJpZiIgZm9udC1zaXplPSIxNCIgbGVuZ3RoQWRqdXN0PSJzcGFjaW5nIiB0ZXh0TGVuZ3RoPSI0MiIgeD0iNjczLjU4MDciIHk9IjEwNDEuNzI3NyI+Y2FzZSYjMTg3OzwvdGV4dD48dGV4dCBmaWxsPSIjMDAwMDAwIiBmb250LWZhbWlseT0ic2Fucy1zZXJpZiIgZm9udC1zaXplPSIxNiIgZm9udC13ZWlnaHQ9ImJvbGQiIGxlbmd0aEFkanVzdD0ic3BhY2luZyIgdGV4dExlbmd0aD0iNjkiIHg9IjYxMi4wODA3IiB5PSIxMDU5Ljg4MSI+TWFuYWdlPC90ZXh0Pjx0ZXh0IGZpbGw9IiMwMDAwMDAiIGZvbnQtZmFtaWx5PSJzYW5zLXNlcmlmIiBmb250LXNpemU9IjE2IiBmb250LXdlaWdodD0iYm9sZCIgbGVuZ3RoQWRqdXN0PSJzcGFjaW5nIiB0ZXh0TGVuZ3RoPSI2IiB4PSI2ODEuMDgwNyIgeT0iMTA1OS44ODEiPiYjMTYwOzwvdGV4dD48dGV4dCBmaWxsPSIjMDAwMDAwIiBmb250LWZhbWlseT0ic2Fucy1zZXJpZiIgZm9udC1zaXplPSIxNiIgZm9udC13ZWlnaHQ9ImJvbGQiIGxlbmd0aEFkanVzdD0ic3BhY2luZyIgdGV4dExlbmd0aD0iNTEiIHg9IjY4Ny4wODA3IiB5PSIxMDU5Ljg4MSI+QXNzZXQ8L3RleHQ+PC9nPjxnIGlkPSJlbGVtX1VDNiI+PGVsbGlwc2UgY3g9IjY3NS4wNTQ0IiBjeT0iODUwLjgxMDkiIGZpbGw9IiNBREQ4RTYiIHJ4PSIxMzkuNTU0NCIgcnk9IjMwLjMxMDkiIHN0eWxlPSJzdHJva2U6IzAwMDAwMDtzdHJva2Utd2lkdGg6MC41OyIvPjx0ZXh0IGZpbGw9IiMwMDAwMDAiIGZvbnQtZmFtaWx5PSJzYW5zLXNlcmlmIiBmb250LXNpemU9IjE0IiBsZW5ndGhBZGp1c3Q9InNwYWNpbmciIHRleHRMZW5ndGg9IjM1IiB4PSI2MzQuNTU0NCIgeT0iODQ0LjM0NTEiPiYjMTcxO3VzZTwvdGV4dD48dGV4dCBmaWxsPSIjMDAwMDAwIiBmb250LWZhbWlseT0ic2Fucy1zZXJpZiIgZm9udC1zaXplPSIxNCIgbGVuZ3RoQWRqdXN0PSJzcGFjaW5nIiB0ZXh0TGVuZ3RoPSI0IiB4PSI2NjkuNTU0NCIgeT0iODQ0LjM0NTEiPiYjMTYwOzwvdGV4dD48dGV4dCBmaWxsPSIjMDAwMDAwIiBmb250LWZhbWlseT0ic2Fucy1zZXJpZiIgZm9udC1zaXplPSIxNCIgbGVuZ3RoQWRqdXN0PSJzcGFjaW5nIiB0ZXh0TGVuZ3RoPSI0MiIgeD0iNjczLjU1NDQiIHk9Ijg0NC4zNDUxIj5jYXNlJiMxODc7PC90ZXh0Pjx0ZXh0IGZpbGw9IiMwMDAwMDAiIGZvbnQtZmFtaWx5PSJzYW5zLXNlcmlmIiBmb250LXNpemU9IjE2IiBmb250LXdlaWdodD0iYm9sZCIgbGVuZ3RoQWRqdXN0PSJzcGFjaW5nIiB0ZXh0TGVuZ3RoPSI3NyIgeD0iNTc2LjA1NDQiIHk9Ijg2Mi40OTg0Ij5MaWZlY3ljbGU8L3RleHQ+PHRleHQgZmlsbD0iIzAwMDAwMCIgZm9udC1mYW1pbHk9InNhbnMtc2VyaWYiIGZvbnQtc2l6ZT0iMTYiIGZvbnQtd2VpZ2h0PSJib2xkIiBsZW5ndGhBZGp1c3Q9InNwYWNpbmciIHRleHRMZW5ndGg9IjYiIHg9IjY1My4wNTQ0IiB5PSI4NjIuNDk4NCI+JiMxNjA7PC90ZXh0Pjx0ZXh0IGZpbGw9IiMwMDAwMDAiIGZvbnQtZmFtaWx5PSJzYW5zLXNlcmlmIiBmb250LXNpemU9IjE2IiBmb250LXdlaWdodD0iYm9sZCIgbGVuZ3RoQWRqdXN0PSJzcGFjaW5nIiB0ZXh0TGVuZ3RoPSIxMTUiIHg9IjY1OS4wNTQ0IiB5PSI4NjIuNDk4NCI+TWFuYWdlbWVudDwvdGV4dD48L2c+PGcgaWQ9ImVsZW1fVUM0Ij48ZWxsaXBzZSBjeD0iNjc1LjA2NiIgY3k9IjM5OS4xOTM1IiBmaWxsPSIjQUREOEU2IiByeD0iMTA5LjA2NiIgcnk9IjI3LjY5MzUiIHN0eWxlPSJzdHJva2U6IzAwMDAwMDtzdHJva2Utd2lkdGg6MC41OyIvPjx0ZXh0IGZpbGw9IiMwMDAwMDAiIGZvbnQtZmFtaWx5PSJzYW5zLXNlcmlmIiBmb250LXNpemU9IjE0IiBsZW5ndGhBZGp1c3Q9InNwYWNpbmciIHRleHRMZW5ndGg9IjM1IiB4PSI2MzQuNTY2IiB5PSIzOTIuNzI3NyI+JiMxNzE7dXNlPC90ZXh0Pjx0ZXh0IGZpbGw9IiMwMDAwMDAiIGZvbnQtZmFtaWx5PSJzYW5zLXNlcmlmIiBmb250LXNpemU9IjE0IiBsZW5ndGhBZGp1c3Q9InNwYWNpbmciIHRleHRMZW5ndGg9IjQiIHg9IjY2OS41NjYiIHk9IjM5Mi43Mjc3Ij4mIzE2MDs8L3RleHQ+PHRleHQgZmlsbD0iIzAwMDAwMCIgZm9udC1mYW1pbHk9InNhbnMtc2VyaWYiIGZvbnQtc2l6ZT0iMTQiIGxlbmd0aEFkanVzdD0ic3BhY2luZyIgdGV4dExlbmd0aD0iNDIiIHg9IjY3My41NjYiIHk9IjM5Mi43Mjc3Ij5jYXNlJiMxODc7PC90ZXh0Pjx0ZXh0IGZpbGw9IiMwMDAwMDAiIGZvbnQtZmFtaWx5PSJzYW5zLXNlcmlmIiBmb250LXNpemU9IjE2IiBmb250LXdlaWdodD0iYm9sZCIgbGVuZ3RoQWRqdXN0PSJzcGFjaW5nIiB0ZXh0TGVuZ3RoPSI2MSIgeD0iNjA2LjA2NiIgeT0iNDEwLjg4MSI+SW1wYWN0PC90ZXh0Pjx0ZXh0IGZpbGw9IiMwMDAwMDAiIGZvbnQtZmFtaWx5PSJzYW5zLXNlcmlmIiBmb250LXNpemU9IjE2IiBmb250LXdlaWdodD0iYm9sZCIgbGVuZ3RoQWRqdXN0PSJzcGFjaW5nIiB0ZXh0TGVuZ3RoPSI2IiB4PSI2NjcuMDY2IiB5PSI0MTAuODgxIj4mIzE2MDs8L3RleHQ+PHRleHQgZmlsbD0iIzAwMDAwMCIgZm9udC1mYW1pbHk9InNhbnMtc2VyaWYiIGZvbnQtc2l6ZT0iMTYiIGZvbnQtd2VpZ2h0PSJib2xkIiBsZW5ndGhBZGp1c3Q9InNwYWNpbmciIHRleHRMZW5ndGg9IjcxIiB4PSI2NzMuMDY2IiB5PSI0MTAuODgxIj5BbmFseXNpczwvdGV4dD48L2c+PGcgaWQ9ImVsZW1fVUM1Ij48ZWxsaXBzZSBjeD0iNjc0LjgxNTYiIGN5PSI3NTYuODYzMSIgZmlsbD0iI0FERDhFNiIgcng9IjEyNy4zMTU2IiByeT0iMjcuODYzMSIgc3R5bGU9InN0cm9rZTojMDAwMDAwO3N0cm9rZS13aWR0aDowLjU7Ii8+PHRleHQgZmlsbD0iIzAwMDAwMCIgZm9udC1mYW1pbHk9InNhbnMtc2VyaWYiIGZvbnQtc2l6ZT0iMTQiIGxlbmd0aEFkanVzdD0ic3BhY2luZyIgdGV4dExlbmd0aD0iMzUiIHg9IjYzNC4zMTU2IiB5PSI3NTAuMzk3MyI+JiMxNzE7dXNlPC90ZXh0Pjx0ZXh0IGZpbGw9IiMwMDAwMDAiIGZvbnQtZmFtaWx5PSJzYW5zLXNlcmlmIiBmb250LXNpemU9IjE0IiBsZW5ndGhBZGp1c3Q9InNwYWNpbmciIHRleHRMZW5ndGg9IjQiIHg9IjY2OS4zMTU2IiB5PSI3NTAuMzk3MyI+JiMxNjA7PC90ZXh0Pjx0ZXh0IGZpbGw9IiMwMDAwMDAiIGZvbnQtZmFtaWx5PSJzYW5zLXNlcmlmIiBmb250LXNpemU9IjE0IiBsZW5ndGhBZGp1c3Q9InNwYWNpbmciIHRleHRMZW5ndGg9IjQyIiB4PSI2NzMuMzE1NiIgeT0iNzUwLjM5NzMiPmNhc2UmIzE4Nzs8L3RleHQ+PHRleHQgZmlsbD0iIzAwMDAwMCIgZm9udC1mYW1pbHk9InNhbnMtc2VyaWYiIGZvbnQtc2l6ZT0iMTYiIGZvbnQtd2VpZ2h0PSJib2xkIiBsZW5ndGhBZGp1c3Q9InNwYWNpbmciIHRleHRMZW5ndGg9IjcyIiB4PSI1OTIuMzE1NiIgeT0iNzY4LjU1MDYiPkluY2lkZW50PC90ZXh0Pjx0ZXh0IGZpbGw9IiMwMDAwMDAiIGZvbnQtZmFtaWx5PSJzYW5zLXNlcmlmIiBmb250LXNpemU9IjE2IiBmb250LXdlaWdodD0iYm9sZCIgbGVuZ3RoQWRqdXN0PSJzcGFjaW5nIiB0ZXh0TGVuZ3RoPSI2IiB4PSI2NjQuMzE1NiIgeT0iNzY4LjU1MDYiPiYjMTYwOzwvdGV4dD48dGV4dCBmaWxsPSIjMDAwMDAwIiBmb250LWZhbWlseT0ic2Fucy1zZXJpZiIgZm9udC1zaXplPSIxNiIgZm9udC13ZWlnaHQ9ImJvbGQiIGxlbmd0aEFkanVzdD0ic3BhY2luZyIgdGV4dExlbmd0aD0iODciIHg9IjY3MC4zMTU2IiB5PSI3NjguNTUwNiI+UmVzcG9uc2U8L3RleHQ+PC9nPjxnIGlkPSJlbGVtX1VDOSI+PGVsbGlwc2UgY3g9IjY3NC45NzExIiBjeT0iNDMuMTk0MiIgZmlsbD0iI0FERDhFNiIgcng9IjE3My45NzExIiByeT0iMzcuMTk0MiIgc3R5bGU9InN0cm9rZTojMDAwMDAwO3N0cm9rZS13aWR0aDowLjU7Ii8+PHRleHQgZmlsbD0iIzAwMDAwMCIgZm9udC1mYW1pbHk9InNhbnMtc2VyaWYiIGZvbnQtc2l6ZT0iMTQiIGxlbmd0aEFkanVzdD0ic3BhY2luZyIgdGV4dExlbmd0aD0iMzUiIHg9IjYzNC40NzExIiB5PSIzNi43Mjg0Ij4mIzE3MTt1c2U8L3RleHQ+PHRleHQgZmlsbD0iIzAwMDAwMCIgZm9udC1mYW1pbHk9InNhbnMtc2VyaWYiIGZvbnQtc2l6ZT0iMTQiIGxlbmd0aEFkanVzdD0ic3BhY2luZyIgdGV4dExlbmd0aD0iNCIgeD0iNjY5LjQ3MTEiIHk9IjM2LjcyODQiPiYjMTYwOzwvdGV4dD48dGV4dCBmaWxsPSIjMDAwMDAwIiBmb250LWZhbWlseT0ic2Fucy1zZXJpZiIgZm9udC1zaXplPSIxNCIgbGVuZ3RoQWRqdXN0PSJzcGFjaW5nIiB0ZXh0TGVuZ3RoPSI0MiIgeD0iNjczLjQ3MTEiIHk9IjM2LjcyODQiPmNhc2UmIzE4Nzs8L3RleHQ+PHRleHQgZmlsbD0iIzAwMDAwMCIgZm9udC1mYW1pbHk9InNhbnMtc2VyaWYiIGZvbnQtc2l6ZT0iMTYiIGZvbnQtd2VpZ2h0PSJib2xkIiBsZW5ndGhBZGp1c3Q9InNwYWNpbmciIHRleHRMZW5ndGg9IjcxIiB4PSI1MzMuOTcxMSIgeT0iNTQuODgxNyI+U3VwcG9ydDwvdGV4dD48dGV4dCBmaWxsPSIjMDAwMDAwIiBmb250LWZhbWlseT0ic2Fucy1zZXJpZiIgZm9udC1zaXplPSIxNiIgZm9udC13ZWlnaHQ9ImJvbGQiIGxlbmd0aEFkanVzdD0ic3BhY2luZyIgdGV4dExlbmd0aD0iNiIgeD0iNjA0Ljk3MTEiIHk9IjU0Ljg4MTciPiYjMTYwOzwvdGV4dD48dGV4dCBmaWxsPSIjMDAwMDAwIiBmb250LWZhbWlseT0ic2Fucy1zZXJpZiIgZm9udC1zaXplPSIxNiIgZm9udC13ZWlnaHQ9ImJvbGQiIGxlbmd0aEFkanVzdD0ic3BhY2luZyIgdGV4dExlbmd0aD0iMTE1IiB4PSI2MTAuOTcxMSIgeT0iNTQuODgxNyI+QXJjaGl0ZWN0dXJhbDwvdGV4dD48dGV4dCBmaWxsPSIjMDAwMDAwIiBmb250LWZhbWlseT0ic2Fucy1zZXJpZiIgZm9udC1zaXplPSIxNiIgZm9udC13ZWlnaHQ9ImJvbGQiIGxlbmd0aEFkanVzdD0ic3BhY2luZyIgdGV4dExlbmd0aD0iNiIgeD0iNzI1Ljk3MTEiIHk9IjU0Ljg4MTciPiYjMTYwOzwvdGV4dD48dGV4dCBmaWxsPSIjMDAwMDAwIiBmb250LWZhbWlseT0ic2Fucy1zZXJpZiIgZm9udC1zaXplPSIxNiIgZm9udC13ZWlnaHQ9ImJvbGQiIGxlbmd0aEFkanVzdD0ic3BhY2luZyIgdGV4dExlbmd0aD0iODQiIHg9IjczMS45NzExIiB5PSI1NC44ODE3Ij5EZWNpc2lvbnM8L3RleHQ+PC9nPjwhLS1lbnRpdHkgRW50ZXJwcmlzZUFyY2hpdGVjdC0tPjxnIGlkPSJlbGVtX0VudGVycHJpc2VBcmNoaXRlY3QiPjxyZWN0IGZpbGw9IiNGRkZGQ0MiIGhlaWdodD0iNTEuMjk2OSIgcng9IjIuNSIgcnk9IjIuNSIgc3R5bGU9InN0cm9rZTojMTgxODE4O3N0cm9rZS13aWR0aDowLjU7IiB3aWR0aD0iMTU2IiB4PSIyNDciIHk9IjE3LjUiLz48aW1hZ2UgaGVpZ2h0PSIxNiIgd2lkdGg9IjE2IiB4PSIzNzgiIHhsaW5rOmhyZWY9ImRhdGE6aW1hZ2UvcG5nO2Jhc2U2NCxpVkJPUncwS0dnb0FBQUFOU1VoRVVnQUFBQkFBQUFBUUNBWUFBQUFmOC85aEFBQUFSRWxFUVZSNFhtTmdHSGJnSDVFWUE0QWwvdi9mK2g4WFJwYUhxVWN4QUYwRExzMW9ocENuR2QwUW5BcUlOWUFzUTVBMWd3M0FwZ2hkQTVwbTNMRkJCQjRGMUFRQTVLd2RvQmlmdFVVQUFBQUFTVVZPUks1Q1lJST0iIHk9IjI3LjUiLz48dGV4dCBmaWxsPSIjMDAwMDAwIiBmb250LWZhbWlseT0ic2Fucy1zZXJpZiIgZm9udC1zaXplPSIxNCIgbGVuZ3RoQWRqdXN0PSJzcGFjaW5nIiB0ZXh0TGVuZ3RoPSI3MSIgeD0iMjU3IiB5PSI1NS40OTUxIj5FbnRlcnByaXNlPC90ZXh0Pjx0ZXh0IGZpbGw9IiMwMDAwMDAiIGZvbnQtZmFtaWx5PSJzYW5zLXNlcmlmIiBmb250LXNpemU9IjE0IiBsZW5ndGhBZGp1c3Q9InNwYWNpbmciIHRleHRMZW5ndGg9IjQiIHg9IjMyOCIgeT0iNTUuNDk1MSI+JiMxNjA7PC90ZXh0Pjx0ZXh0IGZpbGw9IiMwMDAwMDAiIGZvbnQtZmFtaWx5PSJzYW5zLXNlcmlmIiBmb250LXNpemU9IjE0IiBsZW5ndGhBZGp1c3Q9InNwYWNpbmciIHRleHRMZW5ndGg9IjYxIiB4PSIzMzIiIHk9IjU1LjQ5NTEiPkFyY2hpdGVjdDwvdGV4dD48L2c+PGcgaWQ9ImVsZW1fVUMxMCI+PGVsbGlwc2UgY3g9IjY3NC44NDQyIiBjeT0iMTE0My4xOTM1IiBmaWxsPSIjQUREOEU2IiByeD0iMTE2Ljg0NDIiIHJ5PSIyNy42OTM1IiBzdHlsZT0ic3Ryb2tlOiMwMDAwMDA7c3Ryb2tlLXdpZHRoOjAuNTsiLz48dGV4dCBmaWxsPSIjMDAwMDAwIiBmb250LWZhbWlseT0ic2Fucy1zZXJpZiIgZm9udC1zaXplPSIxNCIgbGVuZ3RoQWRqdXN0PSJzcGFjaW5nIiB0ZXh0TGVuZ3RoPSIzNSIgeD0iNjM0LjM0NDIiIHk9IjExMzYuNzI3NyI+JiMxNzE7dXNlPC90ZXh0Pjx0ZXh0IGZpbGw9IiMwMDAwMDAiIGZvbnQtZmFtaWx5PSJzYW5zLXNlcmlmIiBmb250LXNpemU9IjE0IiBsZW5ndGhBZGp1c3Q9InNwYWNpbmciIHRleHRMZW5ndGg9IjQiIHg9IjY2OS4zNDQyIiB5PSIxMTM2LjcyNzciPiYjMTYwOzwvdGV4dD48dGV4dCBmaWxsPSIjMDAwMDAwIiBmb250LWZhbWlseT0ic2Fucy1zZXJpZiIgZm9udC1zaXplPSIxNCIgbGVuZ3RoQWRqdXN0PSJzcGFjaW5nIiB0ZXh0TGVuZ3RoPSI0MiIgeD0iNjczLjM0NDIiIHk9IjExMzYuNzI3NyI+Y2FzZSYjMTg3OzwvdGV4dD48dGV4dCBmaWxsPSIjMDAwMDAwIiBmb250LWZhbWlseT0ic2Fucy1zZXJpZiIgZm9udC1zaXplPSIxNiIgZm9udC13ZWlnaHQ9ImJvbGQiIGxlbmd0aEFkanVzdD0ic3BhY2luZyIgdGV4dExlbmd0aD0iNjkiIHg9IjYwMC4zNDQyIiB5PSIxMTU0Ljg4MSI+TWFuYWdlPC90ZXh0Pjx0ZXh0IGZpbGw9IiMwMDAwMDAiIGZvbnQtZmFtaWx5PSJzYW5zLXNlcmlmIiBmb250LXNpemU9IjE2IiBmb250LXdlaWdodD0iYm9sZCIgbGVuZ3RoQWRqdXN0PSJzcGFjaW5nIiB0ZXh0TGVuZ3RoPSI2IiB4PSI2NjkuMzQ0MiIgeT0iMTE1NC44ODEiPiYjMTYwOzwvdGV4dD48dGV4dCBmaWxsPSIjMDAwMDAwIiBmb250LWZhbWlseT0ic2Fucy1zZXJpZiIgZm9udC1zaXplPSIxNiIgZm9udC13ZWlnaHQ9ImJvbGQiIGxlbmd0aEFkanVzdD0ic3BhY2luZyIgdGV4dExlbmd0aD0iNzQiIHg9IjY3NS4zNDQyIiB5PSIxMTU0Ljg4MSI+Y2hhbmdlczwvdGV4dD48L2c+PCEtLWVudGl0eSBDaGFuZ2VNYW5hZ2VyLS0+PGcgaWQ9ImVsZW1fQ2hhbmdlTWFuYWdlciI+PHJlY3QgZmlsbD0iI0ZGRkZDQyIgaGVpZ2h0PSI1MS4yOTY5IiByeD0iMi41IiByeT0iMi41IiBzdHlsZT0ic3Ryb2tlOiMxODE4MTg7c3Ryb2tlLXdpZHRoOjAuNTsiIHdpZHRoPSIxMzgiIHg9IjI1NiIgeT0iMTE3Ny41Ii8+PGltYWdlIGhlaWdodD0iMTYiIHdpZHRoPSIxNiIgeD0iMzY5IiB4bGluazpocmVmPSJkYXRhOmltYWdlL3BuZztiYXNlNjQsaVZCT1J3MEtHZ29BQUFBTlNVaEVVZ0FBQUJBQUFBQVFDQVlBQUFBZjgvOWhBQUFBUkVsRVFWUjRYbU5nR0hiZ0g1RVlBNEFsL3YvZitoOFhScGFIcVVjeEFGMERMczFvaHBDbkdkMFFuQXFJTllBc1E1QTFndzNBcGdoZEE1cG0zTEZCQkI0RjFBUUE1S3dkb0JpZnRVVUFBQUFBU1VWT1JLNUNZSUk9IiB5PSIxMTg3LjUiLz48dGV4dCBmaWxsPSIjMDAwMDAwIiBmb250LWZhbWlseT0ic2Fucy1zZXJpZiIgZm9udC1zaXplPSIxNCIgbGVuZ3RoQWRqdXN0PSJzcGFjaW5nIiB0ZXh0TGVuZ3RoPSI1NCIgeD0iMjY2IiB5PSIxMjE1LjQ5NTEiPkNoYW5nZTwvdGV4dD48dGV4dCBmaWxsPSIjMDAwMDAwIiBmb250LWZhbWlseT0ic2Fucy1zZXJpZiIgZm9udC1zaXplPSIxNCIgbGVuZ3RoQWRqdXN0PSJzcGFjaW5nIiB0ZXh0TGVuZ3RoPSI0IiB4PSIzMjAiIHk9IjEyMTUuNDk1MSI+JiMxNjA7PC90ZXh0Pjx0ZXh0IGZpbGw9IiMwMDAwMDAiIGZvbnQtZmFtaWx5PSJzYW5zLXNlcmlmIiBmb250LXNpemU9IjE0IiBsZW5ndGhBZGp1c3Q9InNwYWNpbmciIHRleHRMZW5ndGg9IjYwIiB4PSIzMjQiIHk9IjEyMTUuNDk1MSI+TWFuYWdlcjwvdGV4dD48L2c+PCEtLWxpbmsgQXNzZXRPd25lciB0byBVQzEtLT48ZyBpZD0ibGlua19Bc3NldE93bmVyX1VDMSI+PHBhdGggZD0iTTM3OS4yMyw5MzEuNTIgQzQxNy4wMyw5MzQuMDIgNDY5LjgyLDkzNy41MSA1MjAuMzEsOTQwLjg0ICIgZmlsbD0ibm9uZSIgaWQ9IkFzc2V0T3duZXItVUMxIiBzdHlsZT0ic3Ryb2tlOiMwMDAwMDA7c3Ryb2tlLXdpZHRoOjIuMDsiLz48dGV4dCBmaWxsPSIjMDAwMDAwIiBmb250LWZhbWlseT0ic2Fucy1zZXJpZiIgZm9udC1zaXplPSIxMiIgbGVuZ3RoQWRqdXN0PSJzcGFjaW5nIiB0ZXh0TGVuZ3RoPSI0IiB4PSI0NjYiIHk9IjkzNC4xMzg3Ij4mIzE2MDs8L3RleHQ+PC9nPjwhLS1saW5rIEVsc2FFcmlrc2VuIHRvIEFzc2V0T3duZXItLT48ZyBpZD0ibGlua19FbHNhRXJpa3Nlbl9Bc3NldE93bmVyIj48cGF0aCBkPSJNMTQxLjc2LDkyOCBDMTgyLjk3LDkyOCAyMjAuOSw5MjggMjYyLjc2LDkyOCAiIGZpbGw9Im5vbmUiIGlkPSJFbHNhRXJpa3Nlbi1Bc3NldE93bmVyIiBzdHlsZT0ic3Ryb2tlOiMwMDAwMDA7c3Ryb2tlLXdpZHRoOjEuMDsiLz48ZWxsaXBzZSBjeD0iMTM1Ljc2IiBjeT0iOTI4IiBmaWxsPSIjMDAwMDAwIiByeD0iNiIgcnk9IjYiIHN0eWxlPSJzdHJva2U6IzAwMDAwMDtzdHJva2Utd2lkdGg6MS41OyIvPjxwb2x5Z29uIGZpbGw9IiMwMDAwMDAiIHBvaW50cz0iMjcwLjc2LDkyOCwyNjIuNzYsOTI1LDI2Mi43Niw5MzEsMjcwLjc2LDkyOCIgc3R5bGU9InN0cm9rZTojMDAwMDAwO3N0cm9rZS13aWR0aDoxLjA7Ii8+PHRleHQgZmlsbD0iIzAwMDAwMCIgZm9udC1mYW1pbHk9InNhbnMtc2VyaWYiIGZvbnQtc2l6ZT0iMTIiIGxlbmd0aEFkanVzdD0ic3BhY2luZyIgdGV4dExlbmd0aD0iNCIgeD0iMTgwIiB5PSI5MjUuMTM4NyI+JiMxNjA7PC90ZXh0PjwvZz48IS0tbGluayBSaXNrTWFuYWdlciB0byBVQzItLT48ZyBpZD0ibGlua19SaXNrTWFuYWdlcl9VQzIiPjxwYXRoIGQ9Ik0zODEuNTMsMjE2Ljc2IEM0MzMuNDMsMjA0LjM4IDUxMi4xMywxODUuNjEgNTc0LjgyLDE3MC42NiAiIGZpbGw9Im5vbmUiIGlkPSJSaXNrTWFuYWdlci1VQzIiIHN0eWxlPSJzdHJva2U6IzAwMDAwMDtzdHJva2Utd2lkdGg6Mi4wOyIvPjx0ZXh0IGZpbGw9IiMwMDAwMDAiIGZvbnQtZmFtaWx5PSJzYW5zLXNlcmlmIiBmb250LXNpemU9IjEyIiBsZW5ndGhBZGp1c3Q9InNwYWNpbmciIHRleHRMZW5ndGg9IjQiIHg9IjQ2NiIgeT0iMTkzLjEzODciPiYjMTYwOzwvdGV4dD48L2c+PCEtLWxpbmsgTHVrYXNCYXVlciB0byBSaXNrTWFuYWdlci0tPjxnIGlkPSJsaW5rX0x1a2FzQmF1ZXJfUmlza01hbmFnZXIiPjxwYXRoIGQ9Ik0xNDIuNjYsMjMwIEMxODIuOTUsMjMwIDIxOC44MiwyMzAgMjYwLjE1LDIzMCAiIGZpbGw9Im5vbmUiIGlkPSJMdWthc0JhdWVyLVJpc2tNYW5hZ2VyIiBzdHlsZT0ic3Ryb2tlOiMwMDAwMDA7c3Ryb2tlLXdpZHRoOjEuMDsiLz48ZWxsaXBzZSBjeD0iMTM2LjY2IiBjeT0iMjMwIiBmaWxsPSIjMDAwMDAwIiByeD0iNiIgcnk9IjYiIHN0eWxlPSJzdHJva2U6IzAwMDAwMDtzdHJva2Utd2lkdGg6MS41OyIvPjxwb2x5Z29uIGZpbGw9IiMwMDAwMDAiIHBvaW50cz0iMjY4LjE1LDIzMCwyNjAuMTUsMjI3LDI2MC4xNSwyMzMsMjY4LjE1LDIzMCIgc3R5bGU9InN0cm9rZTojMDAwMDAwO3N0cm9rZS13aWR0aDoxLjA7Ii8+PHRleHQgZmlsbD0iIzAwMDAwMCIgZm9udC1mYW1pbHk9InNhbnMtc2VyaWYiIGZvbnQtc2l6ZT0iMTIiIGxlbmd0aEFkanVzdD0ic3BhY2luZyIgdGV4dExlbmd0aD0iNCIgeD0iMTgwIiB5PSIyMjcuMTM4NyI+JiMxNjA7PC90ZXh0PjwvZz48IS0tbGluayBJbmZvcm1hdGlvblNlY3VyaXR5TWFuYWdlciB0byBVQzgtLT48ZyBpZD0ibGlua19JbmZvcm1hdGlvblNlY3VyaXR5TWFuYWdlcl9VQzgiPjxwYXRoIGQ9Ik00MDMuMjMsMzY5LjQ4IEM0NTguOCwzNTEuMTIgNTMzLjY3LDMyNi4zNyA1OTAuNiwzMDcuNTYgIiBmaWxsPSJub25lIiBpZD0iSW5mb3JtYXRpb25TZWN1cml0eU1hbmFnZXItVUM4IiBzdHlsZT0ic3Ryb2tlOiMwMDAwMDA7c3Ryb2tlLXdpZHRoOjIuMDsiLz48dGV4dCBmaWxsPSIjMDAwMDAwIiBmb250LWZhbWlseT0ic2Fucy1zZXJpZiIgZm9udC1zaXplPSIxMiIgbGVuZ3RoQWRqdXN0PSJzcGFjaW5nIiB0ZXh0TGVuZ3RoPSI0IiB4PSI0NjYiIHk9IjM0NC4xMzg3Ij4mIzE2MDs8L3RleHQ+PC9nPjwhLS1saW5rIFJpc2tNYW5hZ2VyIHRvIFVDOC0tPjxnIGlkPSJsaW5rX1Jpc2tNYW5hZ2VyX1VDOCI+PHBhdGggZD0iTTM4MS41OCwyMzIuNzMgQzQwOC42NCwyMzQuNDMgNDQxLjYsMjM3LjA3IDQ3MSwyNDEgQzUwMi4wNCwyNDUuMTQgNTM1LjUsMjUwLjk5IDU2Ni4xMiwyNTYuOTEgIiBmaWxsPSJub25lIiBpZD0iUmlza01hbmFnZXItVUM4IiBzdHlsZT0ic3Ryb2tlOiMwMDAwMDA7c3Ryb2tlLXdpZHRoOjIuMDsiLz48dGV4dCBmaWxsPSIjMDAwMDAwIiBmb250LWZhbWlseT0ic2Fucy1zZXJpZiIgZm9udC1zaXplPSIxMiIgbGVuZ3RoQWRqdXN0PSJzcGFjaW5nIiB0ZXh0TGVuZ3RoPSI0IiB4PSI0NjYiIHk9IjIzOC4xMzg3Ij4mIzE2MDs8L3RleHQ+PC9nPjwhLS1saW5rIFJvYmVydE5pbHNzb24gdG8gSW5mb3JtYXRpb25TZWN1cml0eU1hbmFnZXItLT48ZyBpZD0ibGlua19Sb2JlcnROaWxzc29uX0luZm9ybWF0aW9uU2VjdXJpdHlNYW5hZ2VyIj48cGF0aCBkPSJNMTUwLjYyLDM5NSBDMTczLjU3LDM5NSAxODAuNTUsMzk1IDIwNi43MiwzOTUgIiBmaWxsPSJub25lIiBpZD0iUm9iZXJ0Tmlsc3Nvbi1JbmZvcm1hdGlvblNlY3VyaXR5TWFuYWdlciIgc3R5bGU9InN0cm9rZTojMDAwMDAwO3N0cm9rZS13aWR0aDoxLjA7Ii8+PGVsbGlwc2UgY3g9IjE0NC42MiIgY3k9IjM5NSIgZmlsbD0iIzAwMDAwMCIgcng9IjYiIHJ5PSI2IiBzdHlsZT0ic3Ryb2tlOiMwMDAwMDA7c3Ryb2tlLXdpZHRoOjEuNTsiLz48cG9seWdvbiBmaWxsPSIjMDAwMDAwIiBwb2ludHM9IjIxNC43MiwzOTUsMjA2LjcyLDM5MiwyMDYuNzIsMzk4LDIxNC43MiwzOTUiIHN0eWxlPSJzdHJva2U6IzAwMDAwMDtzdHJva2Utd2lkdGg6MS4wOyIvPjx0ZXh0IGZpbGw9IiMwMDAwMDAiIGZvbnQtZmFtaWx5PSJzYW5zLXNlcmlmIiBmb250LXNpemU9IjEyIiBsZW5ndGhBZGp1c3Q9InNwYWNpbmciIHRleHRMZW5ndGg9IjQiIHg9IjE4MCIgeT0iMzkyLjEzODciPiYjMTYwOzwvdGV4dD48L2c+PCEtLWxpbmsgQXNzZXRPd25lciB0byBVQzMtLT48ZyBpZD0ibGlua19Bc3NldE93bmVyX1VDMyI+PHBhdGggZD0iTTM0MC44MSw5MDIuMzcgQzM2NC4wMiw4NjMuNTUgNDExLjg1LDc4OC43NyA0NjUsNzM2IEM1MTUuNzYsNjg1LjYxIDU4NS4wMiw2MzkuODQgNjI5LjY0LDYxMi43ICIgZmlsbD0ibm9uZSIgaWQ9IkFzc2V0T3duZXItVUMzIiBzdHlsZT0ic3Ryb2tlOiMwMDAwMDA7c3Ryb2tlLXdpZHRoOjIuMDsiLz48dGV4dCBmaWxsPSIjMDAwMDAwIiBmb250LWZhbWlseT0ic2Fucy1zZXJpZiIgZm9udC1zaXplPSIxMiIgbGVuZ3RoQWRqdXN0PSJzcGFjaW5nIiB0ZXh0TGVuZ3RoPSI0IiB4PSI0NjYiIHk9IjcyOC4xMzg3Ij4mIzE2MDs8L3RleHQ+PC9nPjwhLS1saW5rIEluZm9ybWF0aW9uU2VjdXJpdHlNYW5hZ2VyIHRvIFVDMy0tPjxnIGlkPSJsaW5rX0luZm9ybWF0aW9uU2VjdXJpdHlNYW5hZ2VyX1VDMyI+PHBhdGggZD0iTTM2NC42NSw0MjAuNTYgQzM5Mi4yMiw0MzguNDQgNDMwLjM5LDQ2Mi41MyA0NjUsNDgyIEM1MTcuMDMsNTExLjI3IDU3OC4yMiw1NDEuNTQgNjIwLjg5LDU2Mi4wMiAiIGZpbGw9Im5vbmUiIGlkPSJJbmZvcm1hdGlvblNlY3VyaXR5TWFuYWdlci1VQzMiIHN0eWxlPSJzdHJva2U6IzAwMDAwMDtzdHJva2Utd2lkdGg6Mi4wOyIvPjx0ZXh0IGZpbGw9IiMwMDAwMDAiIGZvbnQtZmFtaWx5PSJzYW5zLXNlcmlmIiBmb250LXNpemU9IjEyIiBsZW5ndGhBZGp1c3Q9InNwYWNpbmciIHRleHRMZW5ndGg9IjQiIHg9IjQ2NiIgeT0iNDc5LjEzODciPiYjMTYwOzwvdGV4dD48L2c+PCEtLWxpbmsgUmlza01hbmFnZXIgdG8gVUMzLS0+PGcgaWQ9ImxpbmtfUmlza01hbmFnZXJfVUMzIj48cGF0aCBkPSJNMzUwLjY1LDI1NS45NSBDMzczLjMxLDI4MC4xNyA0MDcuNDYsMzE3LjY1IDQzNSwzNTIgQzQ2Ni40OCwzOTEuMjYgNDY2LjY1LDQwNy4yMiA1MDEsNDQ0IEM1NDMuNDIsNDg5LjQzIDYwMC4xNCw1MzMuNzYgNjM2Ljg3LDU2MC43MyAiIGZpbGw9Im5vbmUiIGlkPSJSaXNrTWFuYWdlci1VQzMiIHN0eWxlPSJzdHJva2U6IzAwMDAwMDtzdHJva2Utd2lkdGg6Mi4wOyIvPjx0ZXh0IGZpbGw9IiMwMDAwMDAiIGZvbnQtZmFtaWx5PSJzYW5zLXNlcmlmIiBmb250LXNpemU9IjEyIiBsZW5ndGhBZGp1c3Q9InNwYWNpbmciIHRleHRMZW5ndGg9IjQiIHg9IjQ2NiIgeT0iMzk0LjEzODciPiYjMTYwOzwvdGV4dD48L2c+PCEtLWxpbmsgUHJvZHVjdE93bmVyIHRvIFVDMy0tPjxnIGlkPSJsaW5rX1Byb2R1Y3RPd25lcl9VQzMiPjxwYXRoIGQ9Ik0zODYuNTYsMTAxMi45MyBDNDA0Ljc5LDEwMDIuNTQgNDIzLjA5LDk4OC42OSA0MzUsOTcxIEM0ODAuMjgsOTAzLjcyIDQ0MS4zMSw4NjguNTcgNDY1LDc5MSBDNDc2LjI3LDc1NC4xIDQ3Ni41NSw3NDEuODUgNTAxLDcxMiBDNTM1Ljc1LDY2OS41OCA1ODguMTQsNjM0LjQzIDYyNi4xNiw2MTIuMzIgIiBmaWxsPSJub25lIiBpZD0iUHJvZHVjdE93bmVyLVVDMyIgc3R5bGU9InN0cm9rZTojMDAwMDAwO3N0cm9rZS13aWR0aDoyLjA7Ii8+PHRleHQgZmlsbD0iIzAwMDAwMCIgZm9udC1mYW1pbHk9InNhbnMtc2VyaWYiIGZvbnQtc2l6ZT0iMTIiIGxlbmd0aEFkanVzdD0ic3BhY2luZyIgdGV4dExlbmd0aD0iNCIgeD0iNDY2IiB5PSI3NjguMTM4NyI+JiMxNjA7PC90ZXh0PjwvZz48IS0tbGluayBJVE9wZXJhdGlvbnMgdG8gVUMzLS0+PGcgaWQ9ImxpbmtfSVRPcGVyYXRpb25zX1VDMyI+PHBhdGggZD0iTTM4MS4xNCw1NDAuNzEgQzQzMi42LDU0OC44NSA1MTAuNjMsNTYxLjE4IDU3My4yLDU3MS4wNyAiIGZpbGw9Im5vbmUiIGlkPSJJVE9wZXJhdGlvbnMtVUMzIiBzdHlsZT0ic3Ryb2tlOiMwMDAwMDA7c3Ryb2tlLXdpZHRoOjIuMDsiLz48dGV4dCBmaWxsPSIjMDAwMDAwIiBmb250LWZhbWlseT0ic2Fucy1zZXJpZiIgZm9udC1zaXplPSIxMiIgbGVuZ3RoQWRqdXN0PSJzcGFjaW5nIiB0ZXh0TGVuZ3RoPSI0IiB4PSI0NjYiIHk9IjU1MS4xMzg3Ij4mIzE2MDs8L3RleHQ+PC9nPjwhLS1saW5rIEluY2lkZW50UmVzcG9uc2VMZWFkIHRvIFVDMy0tPjxnIGlkPSJsaW5rX0luY2lkZW50UmVzcG9uc2VMZWFkX1VDMyI+PHBhdGggZD0iTTM5MS4wNSw2OTguMzkgQzQ1NC42OSw2NzMuMzQgNTUwLjg3LDYzNS40NyA2MTMuMDYsNjEwLjk5ICIgZmlsbD0ibm9uZSIgaWQ9IkluY2lkZW50UmVzcG9uc2VMZWFkLVVDMyIgc3R5bGU9InN0cm9rZTojMDAwMDAwO3N0cm9rZS13aWR0aDoyLjA7Ii8+PHRleHQgZmlsbD0iIzAwMDAwMCIgZm9udC1mYW1pbHk9InNhbnMtc2VyaWYiIGZvbnQtc2l6ZT0iMTIiIGxlbmd0aEFkanVzdD0ic3BhY2luZyIgdGV4dExlbmd0aD0iNCIgeD0iNDY2IiB5PSI2NjQuMTM4NyI+JiMxNjA7PC90ZXh0PjwvZz48IS0tbGluayBFcmlrSm9oYW5zc29uIHRvIEluY2lkZW50UmVzcG9uc2VMZWFkLS0+PGcgaWQ9ImxpbmtfRXJpa0pvaGFuc3Nvbl9JbmNpZGVudFJlc3BvbnNlTGVhZCI+PHBhdGggZD0iTTE1MC42Miw3MjQgQzE3OC4zOCw3MjQgMTkyLjA2LDcyNCAyMjMuMDUsNzI0ICIgZmlsbD0ibm9uZSIgaWQ9IkVyaWtKb2hhbnNzb24tSW5jaWRlbnRSZXNwb25zZUxlYWQiIHN0eWxlPSJzdHJva2U6IzAwMDAwMDtzdHJva2Utd2lkdGg6MS4wOyIvPjxlbGxpcHNlIGN4PSIxNDQuNjIiIGN5PSI3MjQiIGZpbGw9IiMwMDAwMDAiIHJ4PSI2IiByeT0iNiIgc3R5bGU9InN0cm9rZTojMDAwMDAwO3N0cm9rZS13aWR0aDoxLjU7Ii8+PHBvbHlnb24gZmlsbD0iIzAwMDAwMCIgcG9pbnRzPSIyMzEuMDUsNzI0LDIyMy4wNSw3MjEsMjIzLjA1LDcyNywyMzEuMDUsNzI0IiBzdHlsZT0ic3Ryb2tlOiMwMDAwMDA7c3Ryb2tlLXdpZHRoOjEuMDsiLz48dGV4dCBmaWxsPSIjMDAwMDAwIiBmb250LWZhbWlseT0ic2Fucy1zZXJpZiIgZm9udC1zaXplPSIxMiIgbGVuZ3RoQWRqdXN0PSJzcGFjaW5nIiB0ZXh0TGVuZ3RoPSI0IiB4PSIxODAiIHk9IjcyMS4xMzg3Ij4mIzE2MDs8L3RleHQ+PC9nPjwhLS1saW5rIEJqP3JuUmFzbXVzc2VuIHRvIElUT3BlcmF0aW9ucy0tPjxnIGlkPSJsaW5rX0JqJiMyNDY7cm5SYXNtdXNzZW5fSVRPcGVyYXRpb25zIj48cGF0aCBkPSJNMTYxLjIxLDUzMiBDMTk5LjI0LDUzMiAyMjUuNTYsNTMyIDI2MC45Niw1MzIgIiBmaWxsPSJub25lIiBpZD0iQmomIzI0NjtyblJhc211c3Nlbi1JVE9wZXJhdGlvbnMiIHN0eWxlPSJzdHJva2U6IzAwMDAwMDtzdHJva2Utd2lkdGg6MS4wOyIvPjxlbGxpcHNlIGN4PSIxNTUuMjEiIGN5PSI1MzIiIGZpbGw9IiMwMDAwMDAiIHJ4PSI2IiByeT0iNiIgc3R5bGU9InN0cm9rZTojMDAwMDAwO3N0cm9rZS13aWR0aDoxLjU7Ii8+PHBvbHlnb24gZmlsbD0iIzAwMDAwMCIgcG9pbnRzPSIyNjguOTYsNTMyLDI2MC45Niw1MjksMjYwLjk2LDUzNSwyNjguOTYsNTMyIiBzdHlsZT0ic3Ryb2tlOiMwMDAwMDA7c3Ryb2tlLXdpZHRoOjEuMDsiLz48dGV4dCBmaWxsPSIjMDAwMDAwIiBmb250LWZhbWlseT0ic2Fucy1zZXJpZiIgZm9udC1zaXplPSIxMiIgbGVuZ3RoQWRqdXN0PSJzcGFjaW5nIiB0ZXh0TGVuZ3RoPSI0IiB4PSIxODAiIHk9IjUyOS4xMzg3Ij4mIzE2MDs8L3RleHQ+PC9nPjwhLS1saW5rIExpYW1CbGFja3dvb2QgdG8gUHJvZHVjdE93bmVyLS0+PGcgaWQ9ImxpbmtfTGlhbUJsYWNrd29vZF9Qcm9kdWN0T3duZXIiPjxwYXRoIGQ9Ik0xNTUuMDUsMTAzOCBDMTkyLjIsMTAzOCAyMTguNzEsMTAzOCAyNTUuMjcsMTAzOCAiIGZpbGw9Im5vbmUiIGlkPSJMaWFtQmxhY2t3b29kLVByb2R1Y3RPd25lciIgc3R5bGU9InN0cm9rZTojMDAwMDAwO3N0cm9rZS13aWR0aDoxLjA7Ii8+PGVsbGlwc2UgY3g9IjE0OS4wNSIgY3k9IjEwMzgiIGZpbGw9IiMwMDAwMDAiIHJ4PSI2IiByeT0iNiIgc3R5bGU9InN0cm9rZTojMDAwMDAwO3N0cm9rZS13aWR0aDoxLjU7Ii8+PHBvbHlnb24gZmlsbD0iIzAwMDAwMCIgcG9pbnRzPSIyNjMuMjcsMTAzOCwyNTUuMjcsMTAzNSwyNTUuMjcsMTA0MSwyNjMuMjcsMTAzOCIgc3R5bGU9InN0cm9rZTojMDAwMDAwO3N0cm9rZS13aWR0aDoxLjA7Ii8+PHRleHQgZmlsbD0iIzAwMDAwMCIgZm9udC1mYW1pbHk9InNhbnMtc2VyaWYiIGZvbnQtc2l6ZT0iMTIiIGxlbmd0aEFkanVzdD0ic3BhY2luZyIgdGV4dExlbmd0aD0iNCIgeD0iMTgwIiB5PSIxMDM1LjEzODciPiYjMTYwOzwvdGV4dD48L2c+PCEtLWxpbmsgQXNzZXRPd25lciB0byBVQzctLT48ZyBpZD0ibGlua19Bc3NldE93bmVyX1VDNyI+PHBhdGggZD0iTTM3OS4xOCw5NTMuMjcgQzQxMy40NSw5NjguOTMgNDU5LjI1LDk4OC43MSA1MDEsMTAwMyBDNTMxLjk4LDEwMTMuNiA1NjYuOCwxMDIzLjExIDU5Ny4wNSwxMDMwLjYyICIgZmlsbD0ibm9uZSIgaWQ9IkFzc2V0T3duZXItVUM3IiBzdHlsZT0ic3Ryb2tlOiMwMDAwMDA7c3Ryb2tlLXdpZHRoOjIuMDsiLz48dGV4dCBmaWxsPSIjMDAwMDAwIiBmb250LWZhbWlseT0ic2Fucy1zZXJpZiIgZm9udC1zaXplPSIxMiIgbGVuZ3RoQWRqdXN0PSJzcGFjaW5nIiB0ZXh0TGVuZ3RoPSI0IiB4PSI0NjYiIHk9Ijk4Ny4xMzg3Ij4mIzE2MDs8L3RleHQ+PC9nPjwhLS1saW5rIFByb2R1Y3RPd25lciB0byBVQzctLT48ZyBpZD0ibGlua19Qcm9kdWN0T3duZXJfVUM3Ij48cGF0aCBkPSJNMzg2LjYyLDEwMzkuNzQgQzQzOC41MSwxMDQxLjIzIDUxNC4yNSwxMDQzLjQxIDU3NC45NCwxMDQ1LjE1ICIgZmlsbD0ibm9uZSIgaWQ9IlByb2R1Y3RPd25lci1VQzciIHN0eWxlPSJzdHJva2U6IzAwMDAwMDtzdHJva2Utd2lkdGg6Mi4wOyIvPjx0ZXh0IGZpbGw9IiMwMDAwMDAiIGZvbnQtZmFtaWx5PSJzYW5zLXNlcmlmIiBmb250LXNpemU9IjEyIiBsZW5ndGhBZGp1c3Q9InNwYWNpbmciIHRleHRMZW5ndGg9IjQiIHg9IjQ2NiIgeT0iMTAzOS4xMzg3Ij4mIzE2MDs8L3RleHQ+PC9nPjwhLS1saW5rIEFzc2V0T3duZXIgdG8gVUM2LS0+PGcgaWQ9ImxpbmtfQXNzZXRPd25lcl9VQzYiPjxwYXRoIGQ9Ik0zNzkuMjMsOTE2LjIyIEM0MzEuNSw5MDQuNjYgNTEyLjQ1LDg4Ni43NSA1NzYuMyw4NzIuNjIgIiBmaWxsPSJub25lIiBpZD0iQXNzZXRPd25lci1VQzYiIHN0eWxlPSJzdHJva2U6IzAwMDAwMDtzdHJva2Utd2lkdGg6Mi4wOyIvPjx0ZXh0IGZpbGw9IiMwMDAwMDAiIGZvbnQtZmFtaWx5PSJzYW5zLXNlcmlmIiBmb250LXNpemU9IjEyIiBsZW5ndGhBZGp1c3Q9InNwYWNpbmciIHRleHRMZW5ndGg9IjQiIHg9IjQ2NiIgeT0iODkzLjEzODciPiYjMTYwOzwvdGV4dD48L2c+PCEtLWxpbmsgUmlza01hbmFnZXIgdG8gVUM0LS0+PGcgaWQ9ImxpbmtfUmlza01hbmFnZXJfVUM0Ij48cGF0aCBkPSJNMzY2LjQzLDI1NS42NSBDNDAxLjMyLDI3Ny4yMSA0NTMuNDQsMzA4LjA5IDUwMSwzMzEgQzUzNi40NywzNDguMDkgNTc3LjQyLDM2NC4zMyA2MTAuNTgsMzc2LjY2ICIgZmlsbD0ibm9uZSIgaWQ9IlJpc2tNYW5hZ2VyLVVDNCIgc3R5bGU9InN0cm9rZTojMDAwMDAwO3N0cm9rZS13aWR0aDoyLjA7Ii8+PHRleHQgZmlsbD0iIzAwMDAwMCIgZm9udC1mYW1pbHk9InNhbnMtc2VyaWYiIGZvbnQtc2l6ZT0iMTIiIGxlbmd0aEFkanVzdD0ic3BhY2luZyIgdGV4dExlbmd0aD0iNCIgeD0iNDY2IiB5PSIzMTAuMTM4NyI+JiMxNjA7PC90ZXh0PjwvZz48IS0tbGluayBJVE9wZXJhdGlvbnMgdG8gVUM0LS0+PGcgaWQ9ImxpbmtfSVRPcGVyYXRpb25zX1VDNCI+PHBhdGggZD0iTTM3MC43Miw1MDYuNSBDMzk3LjUsNDkxLjkgNDMyLjU0LDQ3My45OCA0NjUsNDYxIEM1MDcuNyw0NDMuOTMgNTU2Ljk1LDQyOS4xIDU5Ni45MSw0MTguMjIgIiBmaWxsPSJub25lIiBpZD0iSVRPcGVyYXRpb25zLVVDNCIgc3R5bGU9InN0cm9rZTojMDAwMDAwO3N0cm9rZS13aWR0aDoyLjA7Ii8+PHRleHQgZmlsbD0iIzAwMDAwMCIgZm9udC1mYW1pbHk9InNhbnMtc2VyaWYiIGZvbnQtc2l6ZT0iMTIiIGxlbmd0aEFkanVzdD0ic3BhY2luZyIgdGV4dExlbmd0aD0iNCIgeD0iNDY2IiB5PSI0NTUuMTM4NyI+JiMxNjA7PC90ZXh0PjwvZz48IS0tbGluayBJbmNpZGVudFJlc3BvbnNlTGVhZCB0byBVQzUtLT48ZyBpZD0ibGlua19JbmNpZGVudFJlc3BvbnNlTGVhZF9VQzUiPjxwYXRoIGQ9Ik0zNTYuMTcsNzQ5LjYyIEMzODIuODMsNzcwLjQ3IDQyMy43OCw3OTguMjggNDY1LDgxMCBDNDY3LjU2LDgxMC43MyA0NjguMzYsODEwLjM0IDQ3MSw4MTAgQzQ3Ny40NCw4MDkuMTcgNTM5LjYxLDc5Mi44NSA1OTMuNDcsNzc4LjUzICIgZmlsbD0ibm9uZSIgaWQ9IkluY2lkZW50UmVzcG9uc2VMZWFkLVVDNSIgc3R5bGU9InN0cm9rZTojMDAwMDAwO3N0cm9rZS13aWR0aDoyLjA7Ii8+PHRleHQgZmlsbD0iIzAwMDAwMCIgZm9udC1mYW1pbHk9InNhbnMtc2VyaWYiIGZvbnQtc2l6ZT0iMTIiIGxlbmd0aEFkanVzdD0ic3BhY2luZyIgdGV4dExlbmd0aD0iNCIgeD0iNDY2IiB5PSI4MDcuMTM4NyI+JiMxNjA7PC90ZXh0PjwvZz48IS0tbGluayBFbnRlcnByaXNlQXJjaGl0ZWN0IHRvIFVDOS0tPjxnIGlkPSJsaW5rX0VudGVycHJpc2VBcmNoaXRlY3RfVUM5Ij48cGF0aCBkPSJNNDAzLjIzLDQzIEM0MzIuMjcsNDMgNDY2LjU3LDQzIDUwMC44NCw0MyAiIGZpbGw9Im5vbmUiIGlkPSJFbnRlcnByaXNlQXJjaGl0ZWN0LVVDOSIgc3R5bGU9InN0cm9rZTojMDAwMDAwO3N0cm9rZS13aWR0aDoyLjA7Ii8+PHRleHQgZmlsbD0iIzAwMDAwMCIgZm9udC1mYW1pbHk9InNhbnMtc2VyaWYiIGZvbnQtc2l6ZT0iMTIiIGxlbmd0aEFkanVzdD0ic3BhY2luZyIgdGV4dExlbmd0aD0iNCIgeD0iNDY2IiB5PSI0MC4xMzg3Ij4mIzE2MDs8L3RleHQ+PC9nPjwhLS1saW5rIElzYWJlbGxhU2NobWlkdCB0byBFbnRlcnByaXNlQXJjaGl0ZWN0LS0+PGcgaWQ9ImxpbmtfSXNhYmVsbGFTY2htaWR0X0VudGVycHJpc2VBcmNoaXRlY3QiPjxwYXRoIGQ9Ik0xNTUuNjksNDMgQzE4Ny4zMSw0MyAyMDUuNTksNDMgMjM4LjczLDQzICIgZmlsbD0ibm9uZSIgaWQ9IklzYWJlbGxhU2NobWlkdC1FbnRlcnByaXNlQXJjaGl0ZWN0IiBzdHlsZT0ic3Ryb2tlOiMwMDAwMDA7c3Ryb2tlLXdpZHRoOjEuMDsiLz48ZWxsaXBzZSBjeD0iMTQ5LjY5IiBjeT0iNDMiIGZpbGw9IiMwMDAwMDAiIHJ4PSI2IiByeT0iNiIgc3R5bGU9InN0cm9rZTojMDAwMDAwO3N0cm9rZS13aWR0aDoxLjU7Ii8+PHBvbHlnb24gZmlsbD0iIzAwMDAwMCIgcG9pbnRzPSIyNDYuNzMsNDMsMjM4LjczLDQwLDIzOC43Myw0NiwyNDYuNzMsNDMiIHN0eWxlPSJzdHJva2U6IzAwMDAwMDtzdHJva2Utd2lkdGg6MS4wOyIvPjx0ZXh0IGZpbGw9IiMwMDAwMDAiIGZvbnQtZmFtaWx5PSJzYW5zLXNlcmlmIiBmb250LXNpemU9IjEyIiBsZW5ndGhBZGp1c3Q9InNwYWNpbmciIHRleHRMZW5ndGg9IjQiIHg9IjE4MCIgeT0iNDAuMTM4NyI+JiMxNjA7PC90ZXh0PjwvZz48IS0tbGluayBBc3NldE93bmVyIHRvIFVDMTAtLT48ZyBpZD0ibGlua19Bc3NldE93bmVyX1VDMTAiPjxwYXRoIGQ9Ik0zNzkuMTIsOTUyLjAxIEMzOTguNjgsOTYyLjkgNDE5Ljc2LDk3Ny4zNSA0MzUsOTk1IEM0NTcuMTIsMTAyMC42MiA0NDQuMzIsMTAzOC4yIDQ2NSwxMDY1IEM0NzcuMzgsMTA4MS4wNSA0ODIuOTQsMTA4My44IDUwMSwxMDkzIEM1MjcuNzQsMTEwNi42MiA1NTguNzYsMTExNy4wNiA1ODcuMDgsMTEyNC43OSAiIGZpbGw9Im5vbmUiIGlkPSJBc3NldE93bmVyLVVDMTAiIHN0eWxlPSJzdHJva2U6IzAwMDAwMDtzdHJva2Utd2lkdGg6Mi4wOyIvPjx0ZXh0IGZpbGw9IiMwMDAwMDAiIGZvbnQtZmFtaWx5PSJzYW5zLXNlcmlmIiBmb250LXNpemU9IjEyIiBsZW5ndGhBZGp1c3Q9InNwYWNpbmciIHRleHRMZW5ndGg9IjQiIHg9IjQ2NiIgeT0iMTA2Mi4xMzg3Ij4mIzE2MDs8L3RleHQ+PC9nPjwhLS1saW5rIFByb2R1Y3RPd25lciB0byBVQzEwLS0+PGcgaWQ9ImxpbmtfUHJvZHVjdE93bmVyX1VDMTAiPjxwYXRoIGQ9Ik0zNDcuNDIsMTA2My42NyBDMzcyLjM1LDEwOTEuMzQgNDE2LjM1LDExMzMuNzIgNDY1LDExNTEgQzUwMy4wNywxMTY0LjUyIDU0Ny41MiwxMTY0Ljc4IDU4NS42MiwxMTYwLjc1ICIgZmlsbD0ibm9uZSIgaWQ9IlByb2R1Y3RPd25lci1VQzEwIiBzdHlsZT0ic3Ryb2tlOiMwMDAwMDA7c3Ryb2tlLXdpZHRoOjIuMDsiLz48dGV4dCBmaWxsPSIjMDAwMDAwIiBmb250LWZhbWlseT0ic2Fucy1zZXJpZiIgZm9udC1zaXplPSIxMiIgbGVuZ3RoQWRqdXN0PSJzcGFjaW5nIiB0ZXh0TGVuZ3RoPSI0IiB4PSI0NjYiIHk9IjExNDguMTM4NyI+JiMxNjA7PC90ZXh0PjwvZz48IS0tbGluayBJVE9wZXJhdGlvbnMgdG8gVUMxMC0tPjxnIGlkPSJsaW5rX0lUT3BlcmF0aW9uc19VQzEwIj48cGF0aCBkPSJNMzc4LjI5LDU1Ny41OSBDNDEwLjk5LDU3Ni42IDQ1MC42NCw2MDUuODMgNDcxLDY0NCBDNTE4LjA1LDczMi4yNCA0MzguMjcsMTAxNS4xMiA1MDEsMTA5MyBDNTE3LjE4LDExMTMuMDkgNTQwLjksMTEyNS40MiA1NjUuNjIsMTEzMi45MSAiIGZpbGw9Im5vbmUiIGlkPSJJVE9wZXJhdGlvbnMtVUMxMCIgc3R5bGU9InN0cm9rZTojMDAwMDAwO3N0cm9rZS13aWR0aDoyLjA7Ii8+PHRleHQgZmlsbD0iIzAwMDAwMCIgZm9udC1mYW1pbHk9InNhbnMtc2VyaWYiIGZvbnQtc2l6ZT0iMTIiIGxlbmd0aEFkanVzdD0ic3BhY2luZyIgdGV4dExlbmd0aD0iNCIgeD0iNDY2IiB5PSI2MzIuMTM4NyI+JiMxNjA7PC90ZXh0PjwvZz48IS0tbGluayBDaGFuZ2VNYW5hZ2VyIHRvIFVDMTAtLT48ZyBpZD0ibGlua19DaGFuZ2VNYW5hZ2VyX1VDMTAiPjxwYXRoIGQ9Ik0zOTQuMjIsMTIwNC43NyBDNDE2Ljc1LDEyMDUuMjcgNDQxLjk1LDEyMDUuNzUgNDY1LDEyMDYgQzQ2Ny42NywxMjA2LjAzIDQ2OC4zNiwxMjA2LjQgNDcxLDEyMDYgQzUyMC42MiwxMTk4LjQ4IDU3NC44MSwxMTgxLjE3IDYxNC43MSwxMTY2LjU5ICIgZmlsbD0ibm9uZSIgaWQ9IkNoYW5nZU1hbmFnZXItVUMxMCIgc3R5bGU9InN0cm9rZTojMDAwMDAwO3N0cm9rZS13aWR0aDoyLjA7Ii8+PHRleHQgZmlsbD0iIzAwMDAwMCIgZm9udC1mYW1pbHk9InNhbnMtc2VyaWYiIGZvbnQtc2l6ZT0iMTIiIGxlbmd0aEFkanVzdD0ic3BhY2luZyIgdGV4dExlbmd0aD0iNCIgeD0iNDY2IiB5PSIxMjAzLjEzODciPiYjMTYwOzwvdGV4dD48L2c+PCEtLWxpbmsgTWFsaW5BbmRlcnNzb24gdG8gQ2hhbmdlTWFuYWdlci0tPjxnIGlkPSJsaW5rX01hbGluQW5kZXJzc29uX0NoYW5nZU1hbmFnZXIiPjxwYXRoIGQ9Ik0xNTcuMywxMjAzIEMxOTEuNiwxMjAzIDIxMy4zOSwxMjAzIDI0Ny45NCwxMjAzICIgZmlsbD0ibm9uZSIgaWQ9Ik1hbGluQW5kZXJzc29uLUNoYW5nZU1hbmFnZXIiIHN0eWxlPSJzdHJva2U6IzAwMDAwMDtzdHJva2Utd2lkdGg6MS4wOyIvPjxlbGxpcHNlIGN4PSIxNTEuMyIgY3k9IjEyMDMiIGZpbGw9IiMwMDAwMDAiIHJ4PSI2IiByeT0iNiIgc3R5bGU9InN0cm9rZTojMDAwMDAwO3N0cm9rZS13aWR0aDoxLjU7Ii8+PHBvbHlnb24gZmlsbD0iIzAwMDAwMCIgcG9pbnRzPSIyNTUuOTQsMTIwMywyNDcuOTQsMTIwMCwyNDcuOTQsMTIwNiwyNTUuOTQsMTIwMyIgc3R5bGU9InN0cm9rZTojMDAwMDAwO3N0cm9rZS13aWR0aDoxLjA7Ii8+PHRleHQgZmlsbD0iIzAwMDAwMCIgZm9udC1mYW1pbHk9InNhbnMtc2VyaWYiIGZvbnQtc2l6ZT0iMTIiIGxlbmd0aEFkanVzdD0ic3BhY2luZyIgdGV4dExlbmd0aD0iNCIgeD0iMTgwIiB5PSIxMjAwLjEzODciPiYjMTYwOzwvdGV4dD48L2c+PCEtLVNSQz1beExaUlJYZW40N3RkQXdScTlLWUhzZkpTQVlNSFc0R0xMSXVMSVZmSzJKZFUwTG95TmNIeGNfOVpfTzctTTZxbDJ1bE5lUGpLWk5aT0RzUHlaY1ZpRU1PNnRaMTFVSGVYZDExOTlvbWM2anpyeWF6ZFpKU0haZlgwazVWTzhtZnRTNFd1OHNlTlNDWjkwXzhNbEJyYXV1ZGt5WEhYdi1HYUxHWkswQ19FbGVkSnFvTThBNVdtNm5uNzZkRzJxajhXT1hBZlBlYmVERjhHcFZsVU5kQ05jZnFlV2NqeVg4dkl3MVh6eUdFNUprSXlzTWZxS3NOSUtjZXVJQllYRUNwRGVxM2ZjOHdIY1F0NjBGZEdVMUJBWTB0YVdzc3FtZHVUUVlCaUQwVjkwcWZ6cFJXWDJXbEI3OTF4b2VtQm9RUVZhbWFIRVNDd09FS2ZDX2hBTld1ZGp0R0lpcVhSSmt3MnQ1VGNUUl9fX1lONVdBV3VEVVRtYUo4Tmg3bmJyWUtaU1BTSkVkckNhaVhvaDBETWRpMXZrMkJzMjhpT3JlSlNOYnVnNnVsT3JBSTRCYm5uODlUcUliSU5mRGR6RW1pb2l1b3pDZzhIN0g2WHBBX0xVTTNiUVhNNXl5NFlwYjZaWkFyZzlMREptOS1wSEFLSW93ZVBjRUtoOGlXdW95SVFhRGkxdE5YbTZ3cU1wZEU1eW5tbi0yOVJublJCeVNfMkVSUThob2F0WVlLRlozQ3pOb1oxSFl1aGZvejZZT29UQmN3SGZqQlcyeWVlaDRBLWw0Yk9jdFVwb0xMSHVfNkJyRVpWU09jbjhSYlFvd19zblRRc1k0emV2UWFIMVpYQmY1UExjYmx4OU85aExuOVNrX21rbGlXYUlrYWdfaTkta1hWeFhFMmtfUmtSY0pzdU9JV2RhM2llRTRCZHltWlhOR0xiYVQ3eTBETkN1RjBJSVBHOUZsRDNsVzFrOU5ZRHVIc3lTRi1uQ3ZKUWlDeThmbFl3aHozRkNTMVFnelRCdGNzZktfWUNEUHJqeUppX29YM3NiTU0zUnZLdFZiSmpQSHRMdXllc2JfdW1JdFU0VDR1dmhleVZWdk4wT0x0UlJReGpsaGtPVTRQQ0ItbThta1VBZ0tlelRoelFVemtsb3hfRHZKeThwWE5GNm9hRXdYOWxTdWFfTWlIakVoRTNFUldfcTNISWRLaDJ1SG1mS192ZWF5c1c1cUFaZDRjY1M0Ym5ucll3THJrNXJGODR0TVFwcE1CbmZ4SzBBdElvTWNNemxWVTUtUDJRRWVvbnFnejBtd2lxOGVQbnZOeFpTOXdNVW93VEdsVkE3OWwtIC0yWEhfOXRoeHhjaktBM19PQ2tTektnc19XMDBdLS0+PC9nPjwvc3ZnPg==;" parent="1" vertex="1">
            <mxGeometry x="0" y="0" width="854px" height="1234px" as="geometry" />
          </mxCell>
        </UserObject>
      </root>
    </mxGraphModel>
  </diagram>
</mxfile>